<svg xmlns="http://www.w3.org/2000/svg" viewBox="0 0 140 21.32"><defs><style>.cls-1{fill:#3ddc84;}</style></defs><g id="Layer_2" data-name="Layer 2"><g id="Layer_1-2" data-name="Layer 1"><path d="M6.71,6.85A5.56,5.56,0,0,1,11.16,9V7.13h3.06V21H12a.87.87,0,0,1-.87-.87v-1a5.56,5.56,0,0,1-4.45,2.14C2.9,21.32,0,18.06,0,14.08A6.93,6.93,0,0,1,6.71,6.85m.55,2.78a4.16,4.16,0,0,0-4.14,4.45,4.16,4.16,0,1,0,8.29,0A4.17,4.17,0,0,0,7.26,9.63"/><path d="M17.7,7.13h3.06V9A4.8,4.8,0,0,1,25,6.85c3.23,0,5.32,2.28,5.32,5.81V21H28.12a.87.87,0,0,1-.87-.87v-7c0-2.2-1.12-3.54-2.9-3.54-2,0-3.59,1.59-3.59,4.56V21H18.57a.87.87,0,0,1-.87-.87Z"/><path d="M39.44,6.85A5.56,5.56,0,0,1,43.89,9V.17H47V21H44.76a.87.87,0,0,1-.87-.87v-1a5.56,5.56,0,0,1-4.45,2.14c-3.81,0-6.71-3.26-6.71-7.24a6.93,6.93,0,0,1,6.71-7.23M40,9.63a4.17,4.17,0,0,0-4.15,4.45,4.16,4.16,0,1,0,8.29,0A4.16,4.16,0,0,0,40,9.63"/><path d="M50.43,7.13h3.06V9.6A3.92,3.92,0,0,1,57.17,7a5.44,5.44,0,0,1,1.19.11v3.14A4.9,4.9,0,0,0,56.83,10c-1.75,0-3.34,1.48-3.34,4.26V21H51.3a.87.87,0,0,1-.87-.87Z"/><path d="M66.62,21.32a7.24,7.24,0,1,1,7.29-7.24,7.18,7.18,0,0,1-7.29,7.24m0-2.84a4.18,4.18,0,0,0,4.18-4.4,4.19,4.19,0,1,0-8.38,0,4.17,4.17,0,0,0,4.2,4.4"/><path d="M77.92,4.09a2.07,2.07,0,0,1-2-2.06,2.06,2.06,0,0,1,2-2,2,2,0,0,1,2,2,2,2,0,0,1-2,2.06m-1.52,3h3.06V21H77.27a.86.86,0,0,1-.87-.87Z"/><path d="M88.68,6.85A5.54,5.54,0,0,1,93.13,9V.17H96.2V21H94a.87.87,0,0,1-.87-.87v-1a5.54,5.54,0,0,1-4.45,2.14c-3.81,0-6.71-3.26-6.71-7.24a6.93,6.93,0,0,1,6.71-7.23m.56,2.78a4.17,4.17,0,0,0-4.15,4.45,4.16,4.16,0,1,0,8.3,0,4.17,4.17,0,0,0-4.15-4.45"/><path class="cls-1" d="M130,15.79a1.55,1.55,0,1,1,1.55-1.55A1.54,1.54,0,0,1,130,15.79m-17.08,0a1.55,1.55,0,1,1,1.54-1.55,1.55,1.55,0,0,1-1.54,1.55m17.64-9.31,3.09-5.35a.65.65,0,0,0-.24-.88.64.64,0,0,0-.88.24L129.38,5.9a19.39,19.39,0,0,0-15.88,0L110.37.49a.64.64,0,0,0-.88-.24.65.65,0,0,0-.24.88l3.09,5.35a18.23,18.23,0,0,0-9.46,14.6H140a18.23,18.23,0,0,0-9.46-14.6"/></g></g></svg>