<svg xmlns="http://www.w3.org/2000/svg" viewBox="0 0 48.94 60"><defs><style>.cls-1{fill:#9e9f9e;}</style></defs><g id="Layer_2" data-name="Layer 2"><g id="Layer_1-2" data-name="Layer 1"><path class="cls-1" d="M48.94,44.07a28.69,28.69,0,0,1-1.81,4.42,42.36,42.36,0,0,1-2.25,3.93,33.91,33.91,0,0,1-2.28,3.16,23.6,23.6,0,0,1-1.84,2,10.86,10.86,0,0,1-2.49,1.71,6.09,6.09,0,0,1-2.68.63,8.07,8.07,0,0,1-2.16-.36c-.84-.24-1.72-.51-2.62-.81S29,58.2,28.14,58a8.79,8.79,0,0,0-5.08,0c-.95.26-1.89.54-2.83.84l-2.61.81a7.31,7.31,0,0,1-2,.36,6.26,6.26,0,0,1-2.1-.36,7.68,7.68,0,0,1-2.14-1.23,16.2,16.2,0,0,1-2.34-2.35c-.82-1-1.74-2.19-2.74-3.64A35.28,35.28,0,0,1,3.76,48a40.28,40.28,0,0,1-2-5.05A38.4,38.4,0,0,1,.45,37.64,30.55,30.55,0,0,1,0,32.53a21.77,21.77,0,0,1,1.14-7.19,17.67,17.67,0,0,1,3.19-5.68,14.56,14.56,0,0,1,4.75-3.73A13.25,13.25,0,0,1,15,14.61,9.76,9.76,0,0,1,17.4,15c1,.28,2.06.58,3.1.9s2,.62,2.83.9a7.53,7.53,0,0,0,1.56.42,11,11,0,0,0,1.35-.45c.82-.3,1.79-.62,2.89-1s2.24-.66,3.43-1a12.46,12.46,0,0,1,3-.45,14.27,14.27,0,0,1,6.94,1.65,14,14,0,0,1,4.9,4.36,13.46,13.46,0,0,0-4.93,4.87,13.36,13.36,0,0,0-1.56,6.55A13,13,0,0,0,43,39.11,13.32,13.32,0,0,0,48.94,44.07ZM36.43,0a3.05,3.05,0,0,1,.06.6v.6a11.82,11.82,0,0,1-1,4.63A14.68,14.68,0,0,1,33,9.92a13.41,13.41,0,0,1-3.61,2.89,8.63,8.63,0,0,1-4.12,1.08q-.84,0-.87-.3t0-.9a10.83,10.83,0,0,1,1-4.45,14.15,14.15,0,0,1,2.65-4,14.67,14.67,0,0,1,3.84-2.95A10.86,10.86,0,0,1,36.43,0Z"/></g></g></svg>