<svg width="8" height="8" viewBox="0 0 8 8" fill="none" xmlns="http://www.w3.org/2000/svg">
<g clip-path="url(#clip0)">
<path d="M4.33957 1.65C4.29607 1.6032 4.24348 1.56576 4.18502 1.53997C4.12656 1.51418 4.06346 1.50058 3.99957 1.5C3.86443 1.50033 3.73495 1.55428 3.63957 1.65L0.149566 5.15C0.101735 5.19489 0.0636125 5.24911 0.0375522 5.30931C0.011492 5.3695 -0.00195313 5.4344 -0.00195312 5.5C-0.00195313 5.5656 0.011492 5.6305 0.0375522 5.69069C0.0636125 5.75089 0.101735 5.80511 0.149566 5.85C0.194211 5.89804 0.248416 5.9362 0.308694 5.96203C0.368972 5.98787 0.43399 6.0008 0.499566 6C0.565141 6.0008 0.630159 5.98787 0.690437 5.96203C0.750715 5.9362 0.80492 5.89804 0.849566 5.85L3.99957 2.71L7.14957 5.85C7.24239 5.94283 7.36829 5.99497 7.49957 5.99497C7.63084 5.99497 7.75674 5.94283 7.84957 5.85C7.94239 5.75717 7.99454 5.63128 7.99454 5.5C7.99454 5.36872 7.94239 5.24283 7.84957 5.15L4.33957 1.65Z" fill="#1B1C1D"/>
</g>
<defs>
<clipPath id="clip0">
<rect width="8" height="8" fill="white"/>
</clipPath>
</defs>
</svg>
