<svg width="8" height="5" viewBox="0 0 8 5" fill="none" xmlns="http://www.w3.org/2000/svg">
<path d="M7.14957 0.159331L3.99957 3.29933L0.849566 0.159331C0.804675 0.111501 0.750458 0.0733782 0.69026 0.047318C0.630062 0.0212577 0.565162 0.0078125 0.499566 0.0078125C0.433969 0.0078125 0.369069 0.0212577 0.308871 0.047318C0.248673 0.0733782 0.194456 0.111501 0.149566 0.159331C0.101735 0.204221 0.0636125 0.258439 0.0375522 0.318636C0.011492 0.378834 -0.00195313 0.443735 -0.00195312 0.509331C-0.00195313 0.574928 0.011492 0.639828 0.0375522 0.700026C0.0636125 0.760224 0.101735 0.814441 0.149566 0.859331L3.65957 4.35933C3.70307 4.40613 3.75565 4.44357 3.81411 4.46936C3.87257 4.49515 3.93567 4.50875 3.99957 4.50933C4.1347 4.509 4.26418 4.45505 4.35957 4.35933L7.83957 0.859331C7.88553 0.813368 7.92199 0.758803 7.94686 0.69875C7.97174 0.638697 7.98454 0.574332 7.98454 0.509331C7.98454 0.44433 7.97174 0.379966 7.94686 0.319913C7.92199 0.25986 7.88553 0.205294 7.83957 0.159331C7.7936 0.113369 7.73904 0.0769089 7.67898 0.0520341C7.61893 0.0271593 7.55457 0.0143564 7.48957 0.0143564C7.42456 0.0143564 7.3602 0.0271593 7.30015 0.0520341C7.24009 0.076909 7.18553 0.113369 7.13957 0.159331H7.14957Z" fill="#1B1C1D"/>
</svg>
