<svg width="20" height="20" viewBox="0 0 20 20" fill="none" xmlns="http://www.w3.org/2000/svg">
<path d="M11.3802 19.5004H8.55017C8.41757 19.5004 8.29039 19.4477 8.19662 19.354C8.10285 19.2602 8.05017 19.133 8.05017 19.0004V11.7504H5.72017C5.58757 11.7504 5.46039 11.6977 5.36662 11.604C5.27285 11.5102 5.22017 11.383 5.22017 11.2504V8.3804C5.2173 8.31397 5.22826 8.24767 5.25236 8.1857C5.27646 8.12373 5.31318 8.06744 5.36017 8.0204C5.45556 7.92468 5.58504 7.87073 5.72017 7.8704H8.00017V5.3504C7.97551 4.84929 8.05386 4.34843 8.23038 3.87878C8.4069 3.40914 8.67785 2.98067 9.02648 2.61986C9.37511 2.25905 9.79402 1.97355 10.2573 1.78101C10.7206 1.58846 11.2185 1.49296 11.7202 1.5004H14.6402C14.7718 1.50334 14.8972 1.55709 14.9902 1.6504C15.039 1.69657 15.0775 1.75247 15.1034 1.81448C15.1292 1.8765 15.1418 1.94324 15.1402 2.0104V4.8704C15.1351 5.00046 15.0805 5.12365 14.9875 5.21474C14.8946 5.30584 14.7703 5.35795 14.6402 5.3604H12.6402C12.5461 5.36039 12.4529 5.37909 12.3661 5.41539C12.2793 5.45169 12.2006 5.50489 12.1346 5.57188C12.0685 5.63887 12.0164 5.71833 11.9813 5.80563C11.9462 5.89293 11.9288 5.98633 11.9302 6.0804V7.8704H14.4002C14.544 7.87614 14.6801 7.93701 14.7802 8.0404C14.8262 8.09548 14.8606 8.15933 14.8812 8.22809C14.9019 8.29685 14.9083 8.36908 14.9002 8.4404L14.5002 11.3204C14.4855 11.4397 14.4274 11.5494 14.3371 11.6287C14.2467 11.708 14.1304 11.7513 14.0102 11.7504H11.8802V18.9904C11.8815 19.0569 11.8696 19.123 11.845 19.1848C11.8205 19.2466 11.7839 19.3029 11.7373 19.3504C11.6907 19.3979 11.6352 19.4357 11.5739 19.4614C11.5125 19.4872 11.4467 19.5004 11.3802 19.5004ZM9.05017 18.5004H10.8802V11.2504C10.8802 11.1178 10.9329 10.9906 11.0266 10.8968C11.1204 10.8031 11.2476 10.7504 11.3802 10.7504H13.5702L13.8302 8.8704H11.3702C11.2332 8.87431 11.1002 8.82399 11.0002 8.7304C10.9107 8.63177 10.8609 8.50356 10.8602 8.3704V6.0804C10.8628 5.62769 11.0438 5.19427 11.3639 4.87415C11.684 4.55403 12.1175 4.37303 12.5702 4.3704H14.1002V2.5004H11.7202C11.356 2.50651 10.9967 2.58625 10.6642 2.73482C10.3316 2.88339 10.0325 3.09773 9.78489 3.36493C9.53731 3.63213 9.34636 3.94667 9.22353 4.2896C9.1007 4.63254 9.04854 4.99678 9.07017 5.3604V8.3604C9.06509 8.49046 9.01048 8.61365 8.91753 8.70474C8.82457 8.79584 8.7003 8.84795 8.57017 8.8504H6.21017V10.7304H8.55017C8.68278 10.7304 8.80996 10.7831 8.90373 10.8769C8.9975 10.9706 9.05017 11.0978 9.05017 11.2304V18.5004Z" fill="#606162"/>
</svg>
