<svg width="12" height="12" viewBox="0 0 12 12" fill="none" xmlns="http://www.w3.org/2000/svg">
<path d="M3.39004 0.149852C3.34356 0.102988 3.28826 0.0657909 3.22733 0.0404066C3.1664 0.0150222 3.10104 0.00195312 3.03504 0.00195312C2.96903 0.00195312 2.90368 0.0150222 2.84275 0.0404066C2.78182 0.0657909 2.72652 0.102988 2.68004 0.149852C2.58842 0.243317 2.53711 0.368976 2.53711 0.499852C2.53711 0.630729 2.58842 0.756388 2.68004 0.849852L7.83004 5.99985L2.70004 11.1299C2.60779 11.225 2.5562 11.3523 2.5562 11.4849C2.5562 11.6174 2.60779 11.7447 2.70004 11.8399C2.79635 11.9298 2.92323 11.9799 3.05504 11.9799C3.18684 11.9799 3.31373 11.9298 3.41004 11.8399L8.89004 6.34985C8.93787 6.30496 8.97599 6.25074 9.00205 6.19055C9.02811 6.13035 9.04156 6.06545 9.04156 5.99985C9.04156 5.93426 9.02811 5.86936 9.00205 5.80916C8.97599 5.74896 8.93787 5.69474 8.89004 5.64985L3.39004 0.149852Z" fill="#1B1C1D"/>
</svg>
