<svg width="20" height="20" viewBox="0 0 20 20" fill="none" xmlns="http://www.w3.org/2000/svg">
<path d="M18.5 17H1.5C1.36739 17 1.24021 16.9473 1.14645 16.8536C1.05268 16.7598 1 16.6326 1 16.5C1 16.3674 1.05268 16.2402 1.14645 16.1464C1.24021 16.0527 1.36739 16 1.5 16H18.5C18.6326 16 18.7598 16.0527 18.8536 16.1464C18.9473 16.2402 19 16.3674 19 16.5C19 16.6326 18.9473 16.7598 18.8536 16.8536C18.7598 16.9473 18.6326 17 18.5 17Z" fill="#1B1C1D"/>
<path d="M18.5 11H1.5C1.36739 11 1.24021 10.9473 1.14645 10.8536C1.05268 10.7598 1 10.6326 1 10.5C1 10.3674 1.05268 10.2402 1.14645 10.1464C1.24021 10.0527 1.36739 10 1.5 10H18.5C18.6326 10 18.7598 10.0527 18.8536 10.1464C18.9473 10.2402 19 10.3674 19 10.5C19 10.6326 18.9473 10.7598 18.8536 10.8536C18.7598 10.9473 18.6326 11 18.5 11Z" fill="#1B1C1D"/>
<path d="M18.5 5H1.5C1.36739 5 1.24021 4.94732 1.14645 4.85355C1.05268 4.75979 1 4.63261 1 4.5C1 4.36739 1.05268 4.24021 1.14645 4.14645C1.24021 4.05268 1.36739 4 1.5 4H18.5C18.6326 4 18.7598 4.05268 18.8536 4.14645C18.9473 4.24021 19 4.36739 19 4.5C19 4.63261 18.9473 4.75979 18.8536 4.85355C18.7598 4.94732 18.6326 5 18.5 5Z" fill="#1B1C1D"/>
</svg>
