<svg width="20" height="20" viewBox="0 0 20 20" fill="none" xmlns="http://www.w3.org/2000/svg">
<path d="M18.4999 18.9999C18.4343 19.0007 18.3693 18.9877 18.309 18.9619C18.2487 18.9361 18.1945 18.8979 18.1499 18.8499L2.14986 2.84986C2.05703 2.75703 2.00488 2.63113 2.00488 2.49986C2.00488 2.36858 2.05703 2.24268 2.14986 2.14986C2.24268 2.05703 2.36858 2.00488 2.49986 2.00488C2.63113 2.00488 2.75703 2.05703 2.84986 2.14986L18.8499 18.1499C18.8977 18.1947 18.9358 18.249 18.9619 18.3092C18.9879 18.3694 19.0014 18.4343 19.0014 18.4999C19.0014 18.5655 18.9879 18.6304 18.9619 18.6906C18.9358 18.7507 18.8977 18.805 18.8499 18.8499C18.8052 18.8979 18.751 18.9361 18.6907 18.9619C18.6305 18.9877 18.5654 19.0007 18.4999 18.9999Z" fill="#1B1C1D"/>
<path d="M2.49957 18.9999C2.43399 19.0007 2.36897 18.9877 2.30869 18.9619C2.24842 18.9361 2.19421 18.8979 2.14957 18.8499C2.10173 18.805 2.06361 18.7507 2.03755 18.6906C2.01149 18.6304 1.99805 18.5655 1.99805 18.4999C1.99805 18.4343 2.01149 18.3694 2.03755 18.3092C2.06361 18.249 2.10173 18.1947 2.14957 18.1499L18.1496 2.14986C18.1955 2.1039 18.2501 2.06744 18.3101 2.04256C18.3702 2.01769 18.4346 2.00488 18.4996 2.00488C18.5646 2.00488 18.6289 2.01769 18.689 2.04256C18.749 2.06744 18.8036 2.1039 18.8496 2.14986C18.8955 2.19582 18.932 2.25039 18.9569 2.31044C18.9817 2.37049 18.9945 2.43486 18.9945 2.49986C18.9945 2.56486 18.9817 2.62922 18.9569 2.68928C18.932 2.74933 18.8955 2.80389 18.8496 2.84986L2.84957 18.8499C2.80492 18.8979 2.75071 18.9361 2.69044 18.9619C2.63016 18.9877 2.56514 19.0007 2.49957 18.9999Z" fill="#1B1C1D"/>
</svg>
