<svg width="20" height="20" viewBox="0 0 20 20" fill="none" xmlns="http://www.w3.org/2000/svg">
<path d="M10.0002 19.4998C8.7002 19.4998 7.4302 19.4998 6.1802 19.3998C4.84916 19.3947 3.57305 18.8685 2.62534 17.9339C1.67763 16.9993 1.13373 15.7306 1.1102 14.3998C0.980193 11.8247 0.980193 9.24479 1.1102 6.66977C1.11014 6.00722 1.24175 5.35128 1.49739 4.74004C1.75303 4.12881 2.1276 3.57447 2.59933 3.10925C3.07106 2.64403 3.63055 2.2772 4.24528 2.03009C4.86001 1.78297 5.51772 1.66049 6.1802 1.66977C8.6602 1.53977 11.2502 1.53977 13.8702 1.66977C15.2115 1.65373 16.5044 2.16985 17.4659 3.10512C18.4274 4.04039 18.9791 5.31858 19.0002 6.65977C19.0002 7.55977 19.0002 8.46977 19.0002 9.35977V10.0598V11.6698C19.0002 12.4898 19.0002 13.3098 19.0002 14.1398C19.0135 14.8205 18.8909 15.4971 18.6395 16.1298C18.3882 16.7626 18.0132 17.3389 17.5364 17.825C17.0596 18.311 16.4907 18.6972 15.8629 18.9607C15.2351 19.2242 14.5611 19.3599 13.8802 19.3598C12.5602 19.4198 11.2702 19.4998 10.0002 19.4998ZM10.0002 2.49977C8.7202 2.49977 7.4602 2.49977 6.2202 2.59977C5.67896 2.58343 5.14004 2.67716 4.63609 2.87528C4.13215 3.07339 3.67367 3.37176 3.28845 3.7523C2.90323 4.13285 2.59928 4.58765 2.39503 5.08914C2.19078 5.59063 2.09048 6.12836 2.1002 6.66977C1.9702 9.2081 1.9702 11.7514 2.1002 14.2898C2.09048 14.8312 2.19078 15.3689 2.39503 15.8704C2.59928 16.3719 2.90323 16.8267 3.28845 17.2072C3.67367 17.5878 4.13215 17.8861 4.63609 18.0843C5.14004 18.2824 5.67896 18.3761 6.2202 18.3598C8.74853 18.4898 11.2819 18.4898 13.8102 18.3598C14.3703 18.374 14.9273 18.2729 15.4467 18.0629C15.9661 17.853 16.4369 17.5385 16.8297 17.1391C17.2226 16.7397 17.5292 16.2638 17.7305 15.741C17.9319 15.2181 18.0237 14.6595 18.0002 14.0998C18.0002 13.2898 18.0002 12.4798 18.0002 11.6698V10.5598C18.0002 10.1498 18.0002 9.74977 18.0002 9.33977C18.0002 8.47977 18.0002 7.57977 18.0002 6.70977C18.007 6.16343 17.9038 5.62132 17.6967 5.11573C17.4895 4.61015 17.1827 4.15144 16.7945 3.76697C16.4063 3.3825 15.9447 3.08012 15.4371 2.87787C14.9295 2.67562 14.3864 2.57764 13.8402 2.58977C12.5302 2.49977 11.2502 2.49977 10.0002 2.49977Z" fill="#606162"/>
<path d="M10 14.5C9.20888 14.5 8.43552 14.2654 7.77772 13.8259C7.11992 13.3864 6.60723 12.7616 6.30448 12.0307C6.00173 11.2998 5.92252 10.4956 6.07686 9.71964C6.2312 8.94372 6.61216 8.23098 7.17157 7.67157C7.73098 7.11216 8.44372 6.7312 9.21964 6.57686C9.99556 6.42252 10.7998 6.50173 11.5307 6.80448C12.2616 7.10723 12.8864 7.61992 13.3259 8.27772C13.7654 8.93552 14 9.70888 14 10.5C14 11.5609 13.5786 12.5783 12.8284 13.3284C12.0783 14.0786 11.0609 14.5 10 14.5ZM10 7.5C9.40666 7.5 8.82664 7.67595 8.33329 8.00559C7.83994 8.33524 7.45543 8.80377 7.22836 9.35195C7.0013 9.90013 6.94189 10.5033 7.05765 11.0853C7.1734 11.6672 7.45912 12.2018 7.87868 12.6213C8.29824 13.0409 8.83279 13.3266 9.41473 13.4424C9.99667 13.5581 10.5999 13.4987 11.1481 13.2716C11.6962 13.0446 12.1648 12.6601 12.4944 12.1667C12.8241 11.6734 13 11.0933 13 10.5C13 9.70435 12.6839 8.94129 12.1213 8.37868C11.5587 7.81607 10.7957 7.5 10 7.5Z" fill="#606162"/>
<path d="M15 6.25C15.4142 6.25 15.75 5.91421 15.75 5.5C15.75 5.08579 15.4142 4.75 15 4.75C14.5858 4.75 14.25 5.08579 14.25 5.5C14.25 5.91421 14.5858 6.25 15 6.25Z" fill="#606162"/>
</svg>
