<svg width="11" height="11" viewBox="0 0 11 11" fill="none" xmlns="http://www.w3.org/2000/svg">
<path d="M5.5 0C4.41221 0 3.34884 0.322569 2.44437 0.926917C1.5399 1.53126 0.834947 2.39025 0.418665 3.39524C0.00238308 4.40023 -0.106535 5.5061 0.105683 6.573C0.317902 7.63989 0.841726 8.6199 1.61092 9.38909C2.3801 10.1583 3.36011 10.6821 4.42701 10.8943C5.4939 11.1065 6.59977 10.9976 7.60476 10.5813C8.60976 10.1651 9.46874 9.46011 10.0731 8.55564C10.6774 7.65117 11 6.5878 11 5.5C10.9974 4.04212 10.417 2.64471 9.38617 1.61383C8.35529 0.582955 6.95788 0.00264349 5.5 0ZM10 5H8C7.97572 3.73296 7.6933 2.48418 7.17 1.33C7.93086 1.62655 8.59644 2.12499 9.0951 2.77166C9.59376 3.41833 9.90662 4.18875 10 5ZM5.5 10C4.93 10 4.12 8.45 4 6H7C6.88 8.45 6.07 10 5.5 10ZM4 5C4.1 2.55 4.91 1 5.48 1C6.05 1 6.88 2.55 7 5H4ZM3.84 1.33C3.31326 2.48345 3.02743 3.73226 3 5H1C1.09427 4.18763 1.40862 3.41644 1.90912 2.76966C2.40963 2.12288 3.07728 1.62508 3.84 1.33ZM1.05 6H3C3.02428 7.26704 3.3067 8.51582 3.83 9.67C3.0785 9.36618 2.42325 8.86459 1.9338 8.21844C1.44435 7.5723 1.13895 6.8057 1.05 6ZM7.16 9.67C7.68675 8.51655 7.97258 7.26774 8 6H10C9.90574 6.81237 9.59139 7.58356 9.09088 8.23034C8.59038 8.87712 7.92273 9.37492 7.16 9.67Z" fill="#1B1C1D"/>
</svg>
