<svg width="8" height="8" viewBox="0 0 8 8" fill="none" xmlns="http://www.w3.org/2000/svg">
<path d="M2.7098 3.99985L5.8598 0.849852C5.90763 0.804962 5.94575 0.750745 5.97181 0.690547C5.99787 0.630349 6.01132 0.565449 6.01132 0.499852C6.01132 0.434256 5.99787 0.369355 5.97181 0.309158C5.94575 0.24896 5.90763 0.194742 5.8598 0.149852C5.81332 0.102988 5.75802 0.0657909 5.69709 0.0404066C5.63616 0.0150222 5.5708 0.00195312 5.5048 0.00195312C5.43879 0.00195312 5.37344 0.0150222 5.31251 0.0404066C5.25158 0.0657909 5.19628 0.102988 5.1498 0.149852L1.6498 3.65985C1.56049 3.7545 1.51074 3.87972 1.51074 4.00985C1.51074 4.13999 1.56049 4.2652 1.6498 4.35985L5.1498 7.84985C5.24519 7.94557 5.37466 7.99952 5.5098 7.99985C5.64168 7.99797 5.76748 7.94406 5.8598 7.84985C5.90763 7.80496 5.94575 7.75074 5.97181 7.69055C5.99787 7.63035 6.01132 7.56545 6.01132 7.49985C6.01132 7.43426 5.99787 7.36936 5.97181 7.30916C5.94575 7.24896 5.90763 7.19474 5.8598 7.14985L2.7098 3.99985Z" fill="#606162"/>
</svg>
