<svg width="20" height="20" viewBox="0 0 20 20" fill="none" xmlns="http://www.w3.org/2000/svg">
<path d="M17.6 7C17.5704 6.91238 17.5175 6.83447 17.4471 6.77458C17.3766 6.71469 17.2912 6.67508 17.2 6.66L11.84 5.9L9.44996 1.05C9.40427 0.971103 9.33865 0.905606 9.25967 0.860074C9.18069 0.814541 9.09112 0.790573 8.99996 0.790573C8.90879 0.790573 8.81923 0.814541 8.74024 0.860074C8.66126 0.905606 8.59564 0.971103 8.54996 1.05L6.15996 5.9L0.799956 6.68C0.710983 6.69332 0.627116 6.72993 0.556865 6.78613C0.486615 6.84233 0.432481 6.91612 0.399956 7C0.370865 7.08857 0.367644 7.1836 0.390671 7.27393C0.413698 7.36427 0.462017 7.44616 0.529956 7.51L4.39996 11.31L3.48996 16.64C3.47182 16.7313 3.48006 16.8258 3.51371 16.9126C3.54735 16.9994 3.60502 17.0748 3.67996 17.13C3.75982 17.1786 3.85149 17.2043 3.94496 17.2043C4.03842 17.2043 4.1301 17.1786 4.20996 17.13L8.99996 14.65L13.79 17.17C13.86 17.2098 13.9394 17.2305 14.02 17.23C14.1283 17.2307 14.2338 17.1956 14.32 17.13C14.3949 17.0748 14.4526 16.9994 14.4862 16.9126C14.5199 16.8258 14.5281 16.7313 14.51 16.64L13.6 11.31L17.47 7.53C17.5417 7.4645 17.5924 7.37914 17.6156 7.28477C17.6387 7.1904 17.6333 7.09127 17.6 7Z" fill="#0076D5"/>
</svg>
