<svg width="20" height="20" viewBox="0 0 20 20" fill="none" xmlns="http://www.w3.org/2000/svg">
<path d="M19.0801 15.2895H18.0801V13.1895H19.0801C19.1201 13.8995 19.1001 14.6595 19.0801 15.2895Z" fill="#606162"/>
<path d="M3.41011 6.17915C3.10328 6.19671 2.79607 6.15206 2.50693 6.04788C2.2178 5.94369 1.95271 5.78213 1.7276 5.5729C1.50249 5.36367 1.322 5.11109 1.19698 4.83033C1.07197 4.54957 1.005 4.24644 1.00011 3.93915C0.981468 3.62759 1.02785 3.31555 1.13631 3.02288C1.24477 2.73022 1.41293 2.46332 1.63011 2.23915C1.8561 1.99774 2.1307 1.80697 2.43579 1.67942C2.74088 1.55186 3.06954 1.49042 3.40011 1.49915C3.71048 1.4895 4.01955 1.54336 4.30836 1.65741C4.59718 1.77146 4.85965 1.94331 5.07969 2.16241C5.29973 2.38151 5.47269 2.64325 5.58798 2.93158C5.70326 3.2199 5.75843 3.52874 5.75011 3.83915C5.75685 4.1466 5.7016 4.45226 5.58765 4.73789C5.4737 5.02352 5.30339 5.28328 5.08687 5.50166C4.87035 5.72004 4.61207 5.89258 4.32743 6.00898C4.04278 6.12538 3.73761 6.18325 3.43011 6.17915H3.41011ZM3.41011 2.49915C3.03718 2.49599 2.67799 2.63967 2.41011 2.89915C2.28555 3.03204 2.19079 3.18999 2.13216 3.36244C2.07352 3.53489 2.05237 3.71787 2.07011 3.89915C2.06992 4.07241 2.10491 4.24391 2.17295 4.40325C2.241 4.56259 2.34069 4.70646 2.46597 4.82614C2.59126 4.94581 2.73954 5.03881 2.90183 5.09949C3.06412 5.16017 3.23704 5.18727 3.41011 5.17915C3.58672 5.18463 3.76259 5.15406 3.92699 5.08929C4.09139 5.02452 4.24085 4.92692 4.36626 4.80245C4.49167 4.67798 4.59039 4.52924 4.65639 4.36534C4.72238 4.20143 4.75427 4.02579 4.75011 3.84915C4.75857 3.67047 4.72978 3.49199 4.66557 3.32503C4.60136 3.15808 4.50312 3.0063 4.37711 2.87935C4.25109 2.7524 4.10005 2.65304 3.93358 2.58758C3.76711 2.52213 3.58885 2.49201 3.41011 2.49915Z" fill="#606162"/>
<path d="M5.2398 19.5H1.5498C1.4172 19.5 1.29002 19.4473 1.19625 19.3536C1.10248 19.2598 1.0498 19.1326 1.0498 19V8C1.0498 7.86739 1.10248 7.74021 1.19625 7.64645C1.29002 7.55268 1.4172 7.5 1.5498 7.5H5.2398C5.37241 7.5 5.49959 7.55268 5.59336 7.64645C5.68713 7.74021 5.7398 7.86739 5.7398 8V19C5.7398 19.1326 5.68713 19.2598 5.59336 19.3536C5.49959 19.4473 5.37241 19.5 5.2398 19.5ZM2.0498 18.5H4.7398V8.5H2.0498V18.5Z" fill="#606162"/>
<path d="M10.6797 18.3684C10.6797 16.4484 10.6797 14.5284 10.6797 12.8984H11.6797V18.3484L10.6797 18.3684Z" fill="#606162"/>
<path d="M7.50001 19.4998C7.36955 19.5006 7.24394 19.4503 7.15001 19.3598C7.05429 19.2644 7.00034 19.1349 7.00001 18.9998V7.9998C6.99923 7.86934 7.04947 7.74374 7.14001 7.6498C7.2354 7.55408 7.36488 7.50013 7.50001 7.4998H11.18C11.3066 7.4997 11.4283 7.54857 11.5196 7.63618C11.6109 7.72379 11.6648 7.84334 11.67 7.9698V8.0698C12.2438 7.59199 12.9338 7.27457 13.67 7.1498C14.6252 6.9767 15.6108 7.12807 16.47 7.5798C17.1171 7.88641 17.6773 8.34975 18.0999 8.92778C18.5226 9.50581 18.7941 10.1802 18.89 10.8898C18.9765 11.5832 19.0232 12.281 19.03 12.9798V18.9798C19.03 19.1124 18.9773 19.2396 18.8836 19.3334C18.7898 19.4271 18.6626 19.4798 18.53 19.4798H14.9C14.7674 19.4798 14.6402 19.4271 14.5465 19.3334C14.4527 19.2396 14.4 19.1124 14.4 18.9798C14.4 18.9798 14.4 13.8198 14.31 12.6598C14.22 11.4998 13.7 11.0698 13.2 11.0698C12.9829 11.0664 12.7676 11.11 12.5688 11.1974C12.37 11.2848 12.1924 11.4141 12.0481 11.5764C11.9038 11.7387 11.7962 11.9303 11.7327 12.1379C11.6692 12.3456 11.6512 12.5645 11.68 12.7798C11.68 14.5898 11.68 18.9398 11.68 18.9398C11.68 19.0733 11.6277 19.2016 11.5342 19.2969C11.4407 19.3923 11.3135 19.4472 11.18 19.4498L7.51001 19.4998H7.50001ZM8.00001 8.4998V18.4998H10.67C10.67 17.2998 10.67 14.2498 10.67 12.8098C10.6437 12.4637 10.6895 12.1159 10.8045 11.7884C10.9194 11.461 11.101 11.1609 11.3379 10.9071C11.5747 10.6534 11.8615 10.4515 12.1803 10.3143C12.4991 10.1771 12.8429 10.1074 13.19 10.1098C14.19 10.1098 15.19 10.9798 15.3 12.6398C15.36 13.6398 15.38 17.1898 15.39 18.5198H18.07V13.0198C18.07 12.3798 18.07 11.6598 17.93 11.0198C17.8632 10.4649 17.6554 9.93647 17.3262 9.4848C16.9971 9.03314 16.5577 8.67336 16.05 8.4398C15.3741 8.07615 14.5926 7.95946 13.84 8.1098C12.9676 8.30374 12.1898 8.79516 11.64 9.4998C11.575 9.57273 11.4911 9.62627 11.3976 9.65451C11.304 9.68274 11.2045 9.68457 11.11 9.6598C11.0165 9.6325 10.9333 9.57796 10.871 9.50315C10.8086 9.42835 10.77 9.33666 10.76 9.2398C10.76 9.0898 10.76 8.7698 10.7 8.4998H8.00001Z" fill="#606162"/>
</svg>
