<svg xmlns="http://www.w3.org/2000/svg" xmlns:xlink="http://www.w3.org/1999/xlink" viewBox="0 0 50.32 60"><defs><style>.cls-1{fill:none;}.cls-2{fill:#020204;}.cls-3{fill:#fdfdfb;}.cls-4,.cls-8{opacity:0.25;}.cls-14,.cls-17,.cls-18,.cls-29,.cls-30,.cls-4,.cls-5,.cls-51,.cls-52,.cls-6,.cls-7,.cls-8,.cls-9{isolation:isolate;}.cls-4{fill:url(#radial-gradient);}.cls-5{opacity:0.42;fill:url(#radial-gradient-2);}.cls-18,.cls-6{opacity:0.2;}.cls-6{fill:url(#radial-gradient-3);}.cls-7{opacity:0.11;}.cls-10,.cls-17,.cls-8,.cls-9{fill:#7c7c7c;}.cls-9{opacity:0.75;}.cls-11{fill:#838384;}.cls-12{clip-path:url(#clip-path);}.cls-13{fill-opacity:0.26;}.cls-14{opacity:0.3;}.cls-15{clip-path:url(#clip-path-3);}.cls-16{clip-path:url(#clip-path-4);}.cls-17{opacity:0.95;}.cls-18{fill:url(#linear-gradient);}.cls-19{fill:url(#linear-gradient-2);}.cls-20{clip-path:url(#clip-path-5);}.cls-21{fill:#cd8907;}.cls-22{fill:#f5c021;}.cls-23{fill:url(#linear-gradient-3);}.cls-24{fill:url(#linear-gradient-4);}.cls-25{clip-path:url(#clip-path-8);}.cls-26{fill:#d99a03;}.cls-27{fill:#f5bd0c;}.cls-28{fill:url(#linear-gradient-5);}.cls-29,.cls-30{opacity:0.35;}.cls-29{fill:url(#radial-gradient-4);}.cls-30{fill:url(#radial-gradient-5);}.cls-31{clip-path:url(#clip-path-10);}.cls-32{fill:url(#radial-gradient-6);}.cls-33{fill:url(#linear-gradient-6);}.cls-34{fill:url(#radial-gradient-7);}.cls-35{fill:url(#linear-gradient-7);}.cls-36{clip-path:url(#clip-path-12);}.cls-37{fill:url(#radial-gradient-8);}.cls-38{fill:url(#linear-gradient-8);}.cls-39{fill:url(#radial-gradient-9);}.cls-40{fill:#141413;}.cls-41{fill:url(#linear-gradient-9);}.cls-42{clip-path:url(#clip-path-13);}.cls-43{fill:url(#linear-gradient-10);}.cls-44{fill:url(#linear-gradient-11);}.cls-45{fill:url(#radial-gradient-10);}.cls-46{fill:url(#radial-gradient-11);}.cls-47{fill:#d9b30d;}.cls-48{fill:#604405;}.cls-49{fill:url(#linear-gradient-12);}.cls-50{fill:#f6da4a;}.cls-51,.cls-52{opacity:0.8;}.cls-51{fill:url(#radial-gradient-12);}.cls-52{fill:url(#radial-gradient-13);}.cls-53{clip-path:url(#clip-path-14);}.cls-54{fill:url(#linear-gradient-13);}</style><radialGradient id="radial-gradient" cx="337.75" cy="20.46" r="5.53" gradientTransform="translate(286.49 44.02) rotate(180) scale(0.81 0.76)" gradientUnits="userSpaceOnUse"><stop offset="0"/><stop offset="1" stop-opacity="0.25"/></radialGradient><radialGradient id="radial-gradient-2" cx="171.32" cy="17.26" r="5.53" gradientTransform="matrix(1, 0, 0, -0.76, -142, 44.02)" xlink:href="#radial-gradient"/><radialGradient id="radial-gradient-3" cx="163.93" cy="-30.19" r="2.19" gradientTransform="matrix(1, 0, 0, -1.07, -142, -2.4)" xlink:href="#radial-gradient"/><clipPath id="clip-path" transform="translate(0)"><path class="cls-1" d="M19.33,17.34a2.43,2.43,0,0,0-.43.92,5.59,5.59,0,0,0-.13,1,8.49,8.49,0,0,1-.16,2,6.19,6.19,0,0,1-1,1.9,11.47,11.47,0,0,0-1.83,3.27,6,6,0,0,0-.21,2.26,23.31,23.31,0,0,0-2.1,3.79,20.51,20.51,0,0,0-1.71,6.33,16.17,16.17,0,0,0,1.14,7.9,12.88,12.88,0,0,0,3.37,4.69,11.34,11.34,0,0,0,2.46,1.64,11,11,0,0,0,9.89-.1,19.15,19.15,0,0,0,4.2-3.32,14.43,14.43,0,0,0,2.13-2.42,13.54,13.54,0,0,0,1.78-5.9c.43-3.6.44-7.41-1.14-10.67a11.59,11.59,0,0,0-2.13-3.06A16.8,16.8,0,0,0,32.07,23C31.59,22,31,21,30.56,20c-.19-.44-.34-.88-.55-1.3a3.73,3.73,0,0,0-.79-1.16A3.16,3.16,0,0,0,28,16.77a5.72,5.72,0,0,0-1.42-.25c-1-.05-1.93.08-2.89,0-.76,0-1.53-.16-2.29-.12a3.62,3.62,0,0,0-1.13.24,2.33,2.33,0,0,0-.92.66"/></clipPath><clipPath id="clip-path-3" transform="translate(0)"><path class="cls-1" d="M38,29.79a6.48,6.48,0,0,1,2.25,4A9.87,9.87,0,0,1,40,37.5,31.12,31.12,0,0,1,38.92,41a6.46,6.46,0,0,0-.4,1.41,2.27,2.27,0,0,0,.21,1.43,2.17,2.17,0,0,0,1.31,1,3.15,3.15,0,0,0,1.64,0,4,4,0,0,0,1.48-.74,5.86,5.86,0,0,0,2.05-3.6,11.87,11.87,0,0,0-.1-4.2,28.76,28.76,0,0,0-1.59-5.54,19.68,19.68,0,0,0-2-3.74c-.78-1.14-1.88-2-2.7-3.16-.28-.39-.62-.79-.9-1.18-.6-.85-.46-.69-.83-1.24A2.15,2.15,0,0,0,36,20.76a2.21,2.21,0,0,0-1.41-.1,2.3,2.3,0,0,0-1.38,1.23A3.29,3.29,0,0,0,33,23.75,6.86,6.86,0,0,0,33.88,26a8.23,8.23,0,0,0,1.73,2.16c.74.61,1.63,1,2.38,1.62"/></clipPath><clipPath id="clip-path-4" transform="translate(0)"><path class="cls-1" d="M14.84,23.65a21.94,21.94,0,0,0-3.7,5,20.61,20.61,0,0,0-.86,2.8,23.41,23.41,0,0,1-1.21,3.1c-.44.92-.92,1.83-1.4,2.73a6.91,6.91,0,0,0-.83,2.06A4.14,4.14,0,0,0,7,41a7.47,7.47,0,0,0,.65,1.64,15.93,15.93,0,0,0,4.9,5.64A16.71,16.71,0,0,0,15.45,50a4.44,4.44,0,0,0,1.77.5,2.29,2.29,0,0,0,.9-.17,1.53,1.53,0,0,0,.7-.58,1.69,1.69,0,0,0,.24-1.1,2.62,2.62,0,0,0-.39-1.06,7.58,7.58,0,0,0-2-1.93c-1.58-1.23-3.11-2.52-4.58-3.89A5.86,5.86,0,0,1,11,40.54,4.47,4.47,0,0,1,10.46,39a8.7,8.7,0,0,1,.29-4.47c.2-.56.46-1.09.71-1.62a19,19,0,0,1,1.43-2.72,33.32,33.32,0,0,0,2.25-3.09A11,11,0,0,0,16,24c.15-.83.44-1.65.58-2.47a23.54,23.54,0,0,1-1.76,2.12Z"/></clipPath><linearGradient id="linear-gradient" x1="184.92" y1="-40.9" x2="185.67" y2="-46.47" gradientTransform="matrix(1.03, 0, 0, -1, -151.46, 8.24)" gradientUnits="userSpaceOnUse"><stop offset="0"/><stop offset="1" stop-opacity="0"/></linearGradient><linearGradient id="linear-gradient-2" x1="276.77" y1="-50.7" x2="286.48" y2="-34.95" gradientTransform="matrix(1, 0, 0, -1, -242, 8.24)" gradientUnits="userSpaceOnUse"><stop offset="0" stop-color="#3e2a06"/><stop offset="1" stop-color="#ad780a"/></linearGradient><clipPath id="clip-path-5" transform="translate(0)"><path class="cls-1" d="M49.73,52.25a6.15,6.15,0,0,1-2,1.41,38.8,38.8,0,0,0-3.72,2,14.89,14.89,0,0,0-2.2,1.76A17,17,0,0,1,40,59a5.09,5.09,0,0,1-2.22.94,5.24,5.24,0,0,1-2.89-.44,3.5,3.5,0,0,1-1.61-1.25,3.86,3.86,0,0,1-.45-2,21.4,21.4,0,0,1,.44-3.65c.18-1,.35-2,.46-3A30.38,30.38,0,0,0,33.82,44a4.82,4.82,0,0,1,0-.93A1.17,1.17,0,0,1,35,42a4.07,4.07,0,0,1,.85.07,16.72,16.72,0,0,1,2,.35c.41.1.81.25,1.23.36a5.37,5.37,0,0,0,2.11.19,16,16,0,0,1,2.27-.35,2.92,2.92,0,0,1,.92.16,1.93,1.93,0,0,1,.84.46,1.89,1.89,0,0,1,.38.62,3.87,3.87,0,0,1,.23,1.06,7.61,7.61,0,0,0,.09,1,3.11,3.11,0,0,0,.71,1.4,8.55,8.55,0,0,0,1.15,1.1c.4.34.81.67,1.24,1a6.67,6.67,0,0,1,.61.43,1.83,1.83,0,0,1,.5.54,1.31,1.31,0,0,1,.11,1,2.92,2.92,0,0,1-.54,1Z"/></clipPath><linearGradient id="linear-gradient-3" x1="181.85" y1="-36.31" x2="181.56" y2="-38.88" gradientTransform="matrix(1, 0, 0, -1, -142, 6.24)" gradientUnits="userSpaceOnUse"><stop offset="0" stop-color="#f3cd0c"/><stop offset="1" stop-color="#f3cd0c" stop-opacity="0"/></linearGradient><linearGradient id="linear-gradient-4" x1="76.33" y1="-37.49" x2="85.97" y2="-53.66" gradientTransform="matrix(1, 0, 0, -1, -72, 8.24)" gradientUnits="userSpaceOnUse"><stop offset="0" stop-color="#b98309"/><stop offset="1" stop-color="#382605"/></linearGradient><clipPath id="clip-path-8" transform="translate(0)"><path class="cls-1" d="M8.2,41a1.81,1.81,0,0,1,1-.1,2.64,2.64,0,0,1,1,.41,6.24,6.24,0,0,1,1.41,1.53c1,1.3,1.86,2.63,2.68,4,.67,1.12,1.28,2.27,2,3.32.51.68,1.07,1.32,1.58,2a6.84,6.84,0,0,1,1.18,2.25,4.49,4.49,0,0,1-.33,3.22,4.32,4.32,0,0,1-1.57,1.69,4.12,4.12,0,0,1-2.22.58,10.85,10.85,0,0,1-3.51-1.13c-2.34-.93-4.88-1.22-7.3-1.94-.74-.23-1.46-.49-2.21-.7a6.57,6.57,0,0,1-1-.31,1.61,1.61,0,0,1-.78-.65A1.46,1.46,0,0,1,0,54.44a2.31,2.31,0,0,1,.16-.78c.18-.5.47-.95.67-1.45a6,6,0,0,0,.33-2.56c0-.87-.18-1.72-.24-2.59A4.09,4.09,0,0,1,1,45.9a1.94,1.94,0,0,1,.51-1,2,2,0,0,1,1-.47,5.45,5.45,0,0,1,1.07-.07,9.55,9.55,0,0,0,1.07,0,2.64,2.64,0,0,0,1-.28,2.43,2.43,0,0,0,.73-.7,8.4,8.4,0,0,0,.53-.87,4.75,4.75,0,0,1,.55-.85A2.11,2.11,0,0,1,8.2,41"/></clipPath><linearGradient id="linear-gradient-5" x1="87.55" y1="-42.84" x2="90.58" y2="-48.55" gradientTransform="matrix(1, 0, 0, -1, -72.53, 6.47)" gradientUnits="userSpaceOnUse"><stop offset="0" stop-color="#ebc40c"/><stop offset="1" stop-color="#ebc40c" stop-opacity="0"/></linearGradient><radialGradient id="radial-gradient-4" cx="181.95" cy="-127.92" r="3.4" gradientTransform="matrix(1.31, 0.35, 0.37, -1.37, -151.34, -193.86)" gradientUnits="userSpaceOnUse"><stop offset="0" stop-color="#110800"/><stop offset="0.59" stop-color="#a65a00" stop-opacity="0.8"/><stop offset="1" stop-color="#ff921e" stop-opacity="0"/></radialGradient><radialGradient id="radial-gradient-5" cx="168.05" cy="-78.49" r="3.4" gradientTransform="matrix(1.31, 0.25, 0.37, -0.99, -151.34, -76)" xlink:href="#radial-gradient-4"/><clipPath id="clip-path-10" transform="translate(0)"><path class="cls-1" d="M44.27,41.89a1.38,1.38,0,0,0-.4-.58,2.35,2.35,0,0,0-.6-.38,7.14,7.14,0,0,0-1.38-.34l-1.32-.26a3.82,3.82,0,0,0-1.39,0,2.34,2.34,0,0,0-1.06.57,3,3,0,0,0-.71,1,4.29,4.29,0,0,0-.33,2.1,2.52,2.52,0,0,0,.53,1.48,2.28,2.28,0,0,0,1.1.65,3.72,3.72,0,0,0,2.19,0,5.76,5.76,0,0,0,2.89-2.18,3.22,3.22,0,0,0,.52-1.09,1.57,1.57,0,0,0,0-.91"/></clipPath><radialGradient id="radial-gradient-6" cx="-206.43" cy="435.33" r="4.15" gradientTransform="matrix(0.36, 0.16, 0.07, -0.17, 85.93, 146.26)" gradientUnits="userSpaceOnUse"><stop offset="0" stop-color="#7c7c7c"/><stop offset="1" stop-color="#7c7c7c" stop-opacity="0.33"/></radialGradient><linearGradient id="linear-gradient-6" x1="180.73" y1="-33.59" x2="181.33" y2="-33.56" gradientTransform="matrix(1, 0, 0, -1, -142, 8.24)" xlink:href="#radial-gradient-6"/><radialGradient id="radial-gradient-7" cx="107.24" cy="-16.37" r="2.94" gradientTransform="matrix(0.82, -0.03, -0.03, -1.25, -67.8, -4.69)" gradientUnits="userSpaceOnUse"><stop offset="0" stop-color="#fefefc"/><stop offset="0.76" stop-color="#fefefc"/><stop offset="1" stop-color="#d4d4d4"/></radialGradient><linearGradient id="linear-gradient-7" x1="61.64" y1="-2.68" x2="62.81" y2="-4.78" gradientTransform="matrix(1, 0, 0, -1, -42, 8.24)" gradientUnits="userSpaceOnUse"><stop offset="0" stop-color="#757574" stop-opacity="0"/><stop offset="0.26" stop-color="#757574"/><stop offset="0.5" stop-color="#757574"/><stop offset="1" stop-color="#757574" stop-opacity="0"/></linearGradient><clipPath id="clip-path-12" transform="translate(0)"><path class="cls-1" d="M19.64,9a1.62,1.62,0,0,0-1,.43,2.32,2.32,0,0,0-.56.91A5.36,5.36,0,0,0,18,12.46a6.24,6.24,0,0,0,.33,1.92,2.75,2.75,0,0,0,.53.82,1.75,1.75,0,0,0,.83.49,1.72,1.72,0,0,0,.9,0,2,2,0,0,0,.78-.48A2.65,2.65,0,0,0,22,14a4.46,4.46,0,0,0,.15-1.32,5.42,5.42,0,0,0-.26-1.65,3.64,3.64,0,0,0-.84-1.43,2.42,2.42,0,0,0-.65-.49A1.74,1.74,0,0,0,19.64,9"/></clipPath><radialGradient id="radial-gradient-8" cx="-8.14" cy="328.64" r="7.17" gradientTransform="matrix(0.2, -0.03, -0.03, -0.19, 31.46, 71.16)" gradientUnits="userSpaceOnUse"><stop offset="0" stop-color="#c8c8c8"/><stop offset="1" stop-color="#797978"/></radialGradient><linearGradient id="linear-gradient-8" x1="151.68" y1="0.87" x2="154.38" y2="-1.74" gradientTransform="matrix(1, 0, 0, -1, -132, 8.24)" gradientUnits="userSpaceOnUse"><stop offset="0" stop-color="#646464" stop-opacity="0"/><stop offset="0.31" stop-color="#646464" stop-opacity="0.58"/><stop offset="0.47" stop-color="#646464"/><stop offset="0.73" stop-color="#646464" stop-opacity="0.26"/><stop offset="1" stop-color="#646464" stop-opacity="0"/></linearGradient><radialGradient id="radial-gradient-9" cx="98.76" cy="-16.13" r="2.94" gradientTransform="matrix(1.09, -0.03, -0.04, -1.25, -80.35, -4.69)" xlink:href="#radial-gradient-7"/><linearGradient id="linear-gradient-9" x1="79.48" y1="-2.84" x2="80.83" y2="-4.44" gradientTransform="matrix(1, 0, 0, -1, -52, 8.24)" gradientUnits="userSpaceOnUse"><stop offset="0" stop-color="#949494" stop-opacity="0.39"/><stop offset="0.5" stop-color="#949494"/><stop offset="1" stop-color="#949494" stop-opacity="0.39"/></linearGradient><clipPath id="clip-path-13" transform="translate(0)"><path class="cls-1" d="M26,9a3.36,3.36,0,0,0-1.27,1.57,3.83,3.83,0,0,0,.11,2.52,4.14,4.14,0,0,0,1.49,2.13,2.69,2.69,0,0,0,1.21.47,2.25,2.25,0,0,0,1.28-.22,2.53,2.53,0,0,0,1.07-1.17,4.42,4.42,0,0,0,.35-1.56,5.3,5.3,0,0,0-.25-2,3.44,3.44,0,0,0-1.31-1.75,2.59,2.59,0,0,0-1-.39,2.29,2.29,0,0,0-1.1.12A2.94,2.94,0,0,0,26,9"/></clipPath><linearGradient id="linear-gradient-10" x1="208.56" y1="0.17" x2="212.87" y2="-2.36" gradientTransform="matrix(1, 0, 0, -1, -182, 8.24)" gradientUnits="userSpaceOnUse"><stop offset="0" stop-color="#747474"/><stop offset="0.13" stop-color="#8c8c8c"/><stop offset="0.25" stop-color="#a4a4a4"/><stop offset="0.5" stop-color="#d4d4d4"/><stop offset="0.62" stop-color="#d4d4d4"/><stop offset="1" stop-color="#7c7c7c"/></linearGradient><linearGradient id="linear-gradient-11" x1="159.91" y1="0.99" x2="162.79" y2="-1.73" xlink:href="#linear-gradient-8"/><radialGradient id="radial-gradient-10" cx="220.24" cy="46.9" r="3.11" gradientTransform="matrix(0.7, -0.51, -0.46, -0.63, -109.37, 155.5)" gradientUnits="userSpaceOnUse"><stop offset="0" stop-color="#020204"/><stop offset="0.73" stop-color="#020204"/><stop offset="1" stop-color="#5c5c5c"/></radialGradient><radialGradient id="radial-gradient-11" cx="209.71" cy="29.52" r="6.28" gradientTransform="matrix(0.94, -0.39, -0.27, -0.66, -162.74, 116.99)" gradientUnits="userSpaceOnUse"><stop offset="0" stop-color="#d2940a"/><stop offset="0.75" stop-color="#d89c08"/><stop offset="0.87" stop-color="#b67e07"/><stop offset="1" stop-color="#946106"/></radialGradient><linearGradient id="linear-gradient-12" x1="160.15" y1="-7.93" x2="171.56" y2="-7.84" gradientTransform="matrix(1, 0, 0, -1, -142, 8.24)" gradientUnits="userSpaceOnUse"><stop offset="0" stop-color="#ad780a"/><stop offset="0.12" stop-color="#d89e08"/><stop offset="0.26" stop-color="#edb80b"/><stop offset="0.39" stop-color="#ebc80d"/><stop offset="0.53" stop-color="#f5d838"/><stop offset="0.77" stop-color="#f6d811"/><stop offset="1" stop-color="#f5cd31"/></linearGradient><radialGradient id="radial-gradient-12" cx="-43.62" cy="51.85" r="0.65" gradientTransform="matrix(1, 0, 0, -0.58, 68, 44.24)" gradientUnits="userSpaceOnUse"><stop offset="0" stop-color="#3a2903"/><stop offset="0.55" stop-color="#735208"/><stop offset="1" stop-color="#ac8c04"/></radialGradient><radialGradient id="radial-gradient-13" cx="-46.56" cy="-11.45" r="0.31" gradientTransform="matrix(1, 0, 0, -1.08, 68, 1.73)" xlink:href="#radial-gradient-12"/><clipPath id="clip-path-14" transform="translate(0)"><path class="cls-1" d="M23.58,13.07a4.35,4.35,0,0,0-1.64.27A5.55,5.55,0,0,0,19.52,15a4.69,4.69,0,0,0-1,.95,2.18,2.18,0,0,0-.41.69c-.06.2-.09.41-.13.61a2,2,0,0,0,0,.24.49.49,0,0,0,0,.12l0,0a.69.69,0,0,0,0,.13.92.92,0,0,0,.22.22,2,2,0,0,0,.27.17,4.86,4.86,0,0,1,1.19,1.16A7.64,7.64,0,0,0,21.15,21a3.11,3.11,0,0,0,1.47.53,4.92,4.92,0,0,0,1.83-.21A6.76,6.76,0,0,0,26,20.61a15.38,15.38,0,0,1,2.72-1.79c.23-.09.46-.14.68-.25a1.11,1.11,0,0,0,.52-.46,2.56,2.56,0,0,0,.13-.68c0-.24.11-.47.15-.71a1.21,1.21,0,0,0-.06-.73l-.08-.13A.5.5,0,0,0,30,15.6a.83.83,0,0,0-.42-.34,3.6,3.6,0,0,0-.73-.21,11.25,11.25,0,0,1-2.19-.8l-1-.55a5.56,5.56,0,0,0-1.09-.48,3.28,3.28,0,0,0-1-.15Z"/></clipPath><linearGradient id="linear-gradient-13" x1="100.84" y1="-38.26" x2="100.92" y2="-38.82" gradientTransform="matrix(1.1, 0, 0.17, -1.52, -74.4, -42.27)" gradientUnits="userSpaceOnUse"><stop offset="0" stop-color="#f5ce2d"/><stop offset="1" stop-color="#d79b08"/></linearGradient></defs><g id="Layer_2" data-name="Layer 2"><g id="Layer_1-2" data-name="Layer 1"><g id="layer2"><g id="g463"><path id="path28712-2" class="cls-2" d="M25,0a8.58,8.58,0,0,0-4.19,1,7.59,7.59,0,0,0-3.15,3.27,10.45,10.45,0,0,0-1,4.47A90.57,90.57,0,0,0,17,18,10.05,10.05,0,0,1,17,20.28c-.38,1.94-2.08,3.25-3,5a51.17,51.17,0,0,0-2.18,6c-.69,1.83-1.66,3.54-2.31,5.38A14.58,14.58,0,0,0,9,44.69a13.92,13.92,0,0,0,2.73,5.56c-.19.34-.37.68-.57,1a15.31,15.31,0,0,0-1.68,3.17,3.84,3.84,0,0,0-.13,1.78,2.54,2.54,0,0,0,.88,1.53,2.64,2.64,0,0,0,1.06.49,5.19,5.19,0,0,0,1.18.11,19.43,19.43,0,0,0,4.38-.87c.86-.22,1.72-.42,2.59-.6a28.31,28.31,0,0,1,9.37,0q1.45.23,2.88.57a22.46,22.46,0,0,0,4.51.87,4.83,4.83,0,0,0,1.2-.1,2.71,2.71,0,0,0,1.09-.5,2.54,2.54,0,0,0,.88-1.53,3.84,3.84,0,0,0-.13-1.78,14.9,14.9,0,0,0-1.7-3.17c-.25-.41-.47-.83-.71-1.24A20.2,20.2,0,0,0,41,42.9a20.54,20.54,0,0,0,.72-9,30.75,30.75,0,0,0-2.61-8.68c-1.57-3.46-2.9-4.71-3.85-7.75-1-3.29-.19-7.18-1-10.16A10.33,10.33,0,0,0,33,4.46a9.87,9.87,0,0,0-2.5-2.69A9.57,9.57,0,0,0,25,0Z" transform="translate(0)"/><path id="path29719-5" class="cls-3" d="M19.33,17.34a2.43,2.43,0,0,0-.43.92,5.59,5.59,0,0,0-.13,1,8.49,8.49,0,0,1-.16,2,6.19,6.19,0,0,1-1,1.9,11.47,11.47,0,0,0-1.83,3.27,6,6,0,0,0-.21,2.26,23.31,23.31,0,0,0-2.1,3.79,20.51,20.51,0,0,0-1.71,6.33,16.17,16.17,0,0,0,1.14,7.9,12.88,12.88,0,0,0,3.37,4.69,11.34,11.34,0,0,0,2.46,1.64,11,11,0,0,0,9.89-.1,19.15,19.15,0,0,0,4.2-3.32,14.43,14.43,0,0,0,2.13-2.42,13.54,13.54,0,0,0,1.78-5.9c.43-3.6.44-7.41-1.14-10.67a11.59,11.59,0,0,0-2.13-3.06A16.8,16.8,0,0,0,32.07,23C31.59,22,31,21,30.56,20c-.19-.44-.34-.88-.55-1.3a3.73,3.73,0,0,0-.79-1.16A3.16,3.16,0,0,0,28,16.77a5.72,5.72,0,0,0-1.42-.25c-1-.05-1.93.08-2.89,0-.76,0-1.53-.16-2.29-.12a3.62,3.62,0,0,0-1.13.24,2.33,2.33,0,0,0-.92.66" transform="translate(0)"/></g><g id="g562"><path id="path4400-1" class="cls-4" d="M15.94,27c.21.3-.13,1.36,4.66.68,0,0-.84.1-1.67.29a11.7,11.7,0,0,0-3.27,1.55,31,31,0,0,0-2.28,2.16s1.28-2.33,1.6-3-.06-.67.19-1.7a8,8,0,0,1,.87-2S15.54,26.39,15.94,27Z" transform="translate(0)"/><path id="path4400-2-8" class="cls-5" d="M31.32,26.72a4.67,4.67,0,0,1-2.73.73c-1.18.13-4.38.08-4.38.08a8,8,0,0,1,1.49.19,28.34,28.34,0,0,1,4.3.82,11.12,11.12,0,0,1,2.32,1c1,.64,1.77,1.65,2.75,2.36a3.43,3.43,0,0,0-.35-1.64A15.29,15.29,0,0,1,33,27.46a19.45,19.45,0,0,1-.46-3.06,3.82,3.82,0,0,1-1.18,2.32Z" transform="translate(0)"/><path id="path4491-9" class="cls-6" d="M22.15,25.27a8.74,8.74,0,0,1-.14.87,3,3,0,0,1-.11.43,1,1,0,0,1-.24.36,1,1,0,0,1-.33.2,5.09,5.09,0,0,1-1.43.41l.59.05a2.38,2.38,0,0,1,.37.06,1,1,0,0,1,.34.15.82.82,0,0,1,.26.32,1.92,1.92,0,0,1,.2.78,7.36,7.36,0,0,1,0,1.05,3.16,3.16,0,0,1,.14-.68,3,3,0,0,1,.63-1.09,2.43,2.43,0,0,1,.38-.34,2.09,2.09,0,0,1,1.46-.35A2.27,2.27,0,0,1,22.83,27a2,2,0,0,1-.53-.59,1.67,1.67,0,0,1-.15-1.18" transform="translate(0)"/><path id="path4542-7" class="cls-7" d="M20.91,32.14A17.67,17.67,0,0,0,20.4,35c-.13,1.37-.1,2.76-.17,4.14a14.72,14.72,0,0,0,0,3.51,6.41,6.41,0,0,0,.51,1.59,5.81,5.81,0,0,0,.09-.58,17.76,17.76,0,0,0-.13-2.82,45.19,45.19,0,0,1,.23-4.93,32.12,32.12,0,0,0,0-3.8h0" transform="translate(0)"/><path id="path28767-9-3" class="cls-8" d="M16.48,22.84c0-.29-.44-.34-.62-.19s-.31.54-.17.7S16.51,23.23,16.48,22.84Z" transform="translate(0)"/><path id="path15189-4" class="cls-9" d="M37.37,30.76c.24,0,1.72,1.22,1.51,1.69s-.58.18-.85.19-1,.34-1.14.12.33-.71.57-1.12-.33-.85-.09-.88Z" transform="translate(0)"/><path id="path28767-3" class="cls-10" d="M28.33,2.61c-.52.36-.29.82-.07,1.28s-.49,1.78-.5,1.83a6.2,6.2,0,0,0,1.79-1.14c.45-.56,1.6.75,1.54.56C31.09,4.78,28.85,2.24,28.33,2.61Z" transform="translate(0)"/><path id="path4596-3" class="cls-11" d="M32.26,18c-.44.4.2,1,.5,1.7.19.43.72,1.05,1.22.95s.62-.62.58-1c-.07-.74-.69-.92-1.15-1.17S32.56,17.68,32.26,18Z" transform="translate(0)"/><g class="cls-12"><path id="path28461-8-7" class="cls-13" d="M18.86,20.94a5.7,5.7,0,0,0,1.86,2.51,3.9,3.9,0,0,0,.88.57,2.12,2.12,0,0,0,1,.2,2.45,2.45,0,0,0,1-.34c.3-.17.57-.37.86-.55.5-.32,1-.57,1.55-.86a8.76,8.76,0,0,0,1.75-1.2,7.53,7.53,0,0,1,.73-.65,1.48,1.48,0,0,1,.91-.3,6.09,6.09,0,0,1,.71.17.87.87,0,0,0,.36,0,.53.53,0,0,0,.32-.15.58.58,0,0,0,.14-.42.92.92,0,0,0-.12-.42,6.06,6.06,0,0,1-.45-.78,2.59,2.59,0,0,1-.06-.79,1.49,1.49,0,0,0-.12-.78,1,1,0,0,0-.43-.41,1.44,1.44,0,0,0-.58-.17,9.93,9.93,0,0,0-1.21.07c-.53,0-1.07,0-1.61,0s-1.32.24-2,.24a14.73,14.73,0,0,0-2.29-.13,6.28,6.28,0,0,0-.94.27,2.65,2.65,0,0,1-1,.19c-.37,0-.74-.13-1.11-.16a1.31,1.31,0,0,0-.55.07.76.76,0,0,0-.42.35.78.78,0,0,0-.07.31,1.19,1.19,0,0,0,0,.32,4.24,4.24,0,0,0,.23.59c.28.72.34,1.51.59,2.24" transform="translate(0)"/></g><g class="cls-12"><path id="path28461-84-3" class="cls-14" d="M17.9,18.09a7.78,7.78,0,0,1,1.77,1.5,7.46,7.46,0,0,0,1.48,1.54,3.13,3.13,0,0,0,1.47.49,5.13,5.13,0,0,0,1.83-.19A6.8,6.8,0,0,0,26,20.79a16.43,16.43,0,0,1,2.72-1.65c.23-.07.46-.13.68-.22a1.16,1.16,0,0,0,.52-.43,2.14,2.14,0,0,0,.13-.62c0-.23.11-.44.15-.66a1,1,0,0,0-.06-.67.89.89,0,0,0-.42-.39,1.69,1.69,0,0,0-.59-.13,10.07,10.07,0,0,0-1.21.11c-.53.05-1.07,0-1.61,0s-1.33.16-2,.19-1.52-.08-2.29-.11a5.32,5.32,0,0,0-1,.05,2.4,2.4,0,0,0-.92.32,8.45,8.45,0,0,0-.73.58,2.26,2.26,0,0,1-.4.25,1.36,1.36,0,0,1-.45.12,1,1,0,0,0-.25,0,.53.53,0,0,0-.34.19.48.48,0,0,0-.09.36h0" transform="translate(0)"/></g></g><g id="g481"><path id="path29705-5-0" class="cls-2" d="M38,29.79a6.48,6.48,0,0,1,2.25,4A9.87,9.87,0,0,1,40,37.5,31.12,31.12,0,0,1,38.92,41a6.46,6.46,0,0,0-.4,1.41,2.27,2.27,0,0,0,.21,1.43,2.17,2.17,0,0,0,1.31,1,3.15,3.15,0,0,0,1.64,0,5.8,5.8,0,0,0,1.89-.65c1.11-.86,1.37-2.37,1.64-3.69a11.65,11.65,0,0,0-.1-4.2,28.76,28.76,0,0,0-1.59-5.54,19.68,19.68,0,0,0-2-3.74c-.78-1.14-1.88-2-2.7-3.16-.28-.39-.62-.79-.9-1.18-.6-.85-.46-.69-.83-1.24A2.15,2.15,0,0,0,36,20.76a2.21,2.21,0,0,0-1.41-.1,2.3,2.3,0,0,0-1.38,1.23A3.29,3.29,0,0,0,33,23.75,6.86,6.86,0,0,0,33.88,26a8.23,8.23,0,0,0,1.73,2.16c.74.61,1.63,1,2.38,1.62" transform="translate(0)"/><path id="path14967-1-0" class="cls-2" d="M14.84,23.65a21.94,21.94,0,0,0-3.7,5,20.61,20.61,0,0,0-.86,2.8,23.41,23.41,0,0,1-1.21,3.1c-.44.92-.92,1.83-1.4,2.73a6.91,6.91,0,0,0-.83,2.06A4.14,4.14,0,0,0,7,41a7.47,7.47,0,0,0,.65,1.64,15.93,15.93,0,0,0,4.9,5.64A16.71,16.71,0,0,0,15.45,50a4.44,4.44,0,0,0,1.77.5,2.29,2.29,0,0,0,.9-.17,1.53,1.53,0,0,0,.7-.58,1.69,1.69,0,0,0,.24-1.1,2.62,2.62,0,0,0-.39-1.06,7.58,7.58,0,0,0-2-1.93c-1.58-1.23-3.11-2.52-4.58-3.89A5.86,5.86,0,0,1,11,40.54,4.47,4.47,0,0,1,10.46,39a8.7,8.7,0,0,1,.29-4.47c.2-.56.46-1.09.71-1.62a19,19,0,0,1,1.43-2.72,33.32,33.32,0,0,0,2.25-3.09A11,11,0,0,0,16,24c.15-.83.44-1.65.58-2.47a23.54,23.54,0,0,1-1.76,2.12Z" transform="translate(0)"/></g><g id="g514"><g class="cls-15"><path id="path29705-9" class="cls-11" d="M35.1,27.89l.31.28c.75.61,1.16,1.31,1.92,1.91a7.72,7.72,0,0,1,2.77,4.25,8,8,0,0,1-.37,3.31c-.31,1.44-1.19,3.47-1.66,4.85-.19.55.38.32.3.9a3.62,3.62,0,0,0,0,.87.91.91,0,0,1,0-.17,10.12,10.12,0,0,1,.6-2.3c.51-1.44,1.09-2.85,1.49-4.33a8,8,0,0,0,.15-3.8,6.37,6.37,0,0,0-2.5-4c-.93-.69-2-1.13-3-1.73Z" transform="translate(0)"/></g><g class="cls-16"><path id="path15007-0" class="cls-17" d="M13.2,29.56A6.5,6.5,0,0,0,12,31a20,20,0,0,0-1.25,2.89,7.09,7.09,0,0,0-.67,2.23,9.63,9.63,0,0,0,.05,1.2,2.31,2.31,0,0,1-.22,1.17,1.41,1.41,0,0,1-.76.64,2.23,2.23,0,0,1,1.08.78c.23.3.37.66.57,1a2.43,2.43,0,0,0,.59.69,1.74,1.74,0,0,0,.83.37,1.51,1.51,0,0,0,1.17-.37,27.19,27.19,0,0,1,1-10.87,3.82,3.82,0,0,0,.15-.67,1,1,0,0,0-.16-.66.68.68,0,0,0-.29-.22.78.78,0,0,0-.37-.06.75.75,0,0,0-.33.14.66.66,0,0,0-.23.29h0" transform="translate(0)"/></g></g><g id="g457"><g id="g444"><path id="path14483-7-4" class="cls-18" d="M46.27,50.53a3.19,3.19,0,0,1-.43.89,6.14,6.14,0,0,1-1.6,1.49,36.4,36.4,0,0,0-3,2.2,15.74,15.74,0,0,0-1.75,1.81,17,17,0,0,1-1.41,1.63,5,5,0,0,1-1.81,1.12,4.48,4.48,0,0,1-2.46,0,2.54,2.54,0,0,1-1.42-.83,3,3,0,0,1-.49-1.62A18.53,18.53,0,0,1,32,54.12c.1-.87.18-1.75.22-2.62A26.21,26.21,0,0,0,32,46.8,4.14,4.14,0,0,1,32,46a1.16,1.16,0,0,1,.95-1.1,3.54,3.54,0,0,1,.73-.07c.56,0,1.14,0,1.7,0,.35,0,.69.1,1.05.13a4.73,4.73,0,0,0,1.79-.14,13.39,13.39,0,0,1,1.88-.63,2.61,2.61,0,0,1,.79,0,1.41,1.41,0,0,1,.73.27,1.38,1.38,0,0,1,.35.47,3.07,3.07,0,0,1,.26.86c0,.26.06.54.12.8A2.37,2.37,0,0,0,43,47.67a6.37,6.37,0,0,0,1,.76,12.1,12.1,0,0,0,1.1.64c.18.09.37.17.54.27a1.53,1.53,0,0,1,.45.39,1.16,1.16,0,0,1,.17.8h0" transform="translate(0)"/><path id="path14296-0" class="cls-19" d="M49.73,52.25a6.15,6.15,0,0,1-2,1.41,38.8,38.8,0,0,0-3.72,2,14.89,14.89,0,0,0-2.2,1.76A17,17,0,0,1,40,59a5.09,5.09,0,0,1-2.22.94,5.24,5.24,0,0,1-2.89-.44,3.5,3.5,0,0,1-1.61-1.25,3.86,3.86,0,0,1-.45-2,21.4,21.4,0,0,1,.44-3.65c.18-1,.35-2,.46-3A30.38,30.38,0,0,0,33.82,44a4.82,4.82,0,0,1,0-.93A1.17,1.17,0,0,1,35,42a4.07,4.07,0,0,1,.85.07,16.72,16.72,0,0,1,2,.35c.41.1.81.25,1.23.36a5.37,5.37,0,0,0,2.11.19,16,16,0,0,1,2.27-.35,2.92,2.92,0,0,1,.92.16,1.93,1.93,0,0,1,.84.46,1.89,1.89,0,0,1,.38.62,3.87,3.87,0,0,1,.23,1.06,7.61,7.61,0,0,0,.09,1,3.11,3.11,0,0,0,.71,1.4,8.55,8.55,0,0,0,1.15,1.1c.4.34.81.67,1.24,1a6.67,6.67,0,0,1,.61.43,1.83,1.83,0,0,1,.5.54,1.31,1.31,0,0,1,.11,1,2.92,2.92,0,0,1-.54,1Z" transform="translate(0)"/><g class="cls-20"><path id="path14296-3-7" class="cls-21" d="M49.67,50.65a3,3,0,0,1-.52.86,5.75,5.75,0,0,1-1.83,1.28,36.45,36.45,0,0,0-3.4,1.76,13.82,13.82,0,0,0-2,1.59,16.17,16.17,0,0,1-1.63,1.46,4.8,4.8,0,0,1-2,.84,5,5,0,0,1-2.63-.39,3.13,3.13,0,0,1-1.47-1.13,3.4,3.4,0,0,1-.41-1.81,17.4,17.4,0,0,1,.4-3.28c.16-.9.32-1.81.42-2.72a28.68,28.68,0,0,0,0-5,3.93,3.93,0,0,1,0-.84,1.12,1.12,0,0,1,.37-.73,1.15,1.15,0,0,1,.72-.26,4.1,4.1,0,0,1,.78.06,16.29,16.29,0,0,1,1.83.32c.37.09.74.22,1.12.32a5.25,5.25,0,0,0,1.93.18,14.59,14.59,0,0,1,2.07-.32,3,3,0,0,1,.84.14,1.87,1.87,0,0,1,.77.42,1.68,1.68,0,0,1,.34.56,2.59,2.59,0,0,1,.22,1,7,7,0,0,0,0,1,1.78,1.78,0,0,0,.3.77,5.52,5.52,0,0,0,.51.66,6.42,6.42,0,0,0,1.13,1.14c.49.36,1.08.57,1.59.91a1.42,1.42,0,0,1,.41.36,1,1,0,0,1,.13.87h0" transform="translate(0)"/></g><g class="cls-20"><path id="path14296-3-1-9" class="cls-22" d="M49.59,50.3a3.38,3.38,0,0,1-.53.87,4.54,4.54,0,0,1-1.87,1.29c-1.17.44-2.44.5-3.58,1a11.71,11.71,0,0,0-2,1.2,10.25,10.25,0,0,1-1.6.93,8,8,0,0,1-2,.54,6.33,6.33,0,0,1-1.3.1,2.9,2.9,0,0,1-1.26-.35,1.72,1.72,0,0,1-.71-.73,2.38,2.38,0,0,1-.2-1.15c0-1.06.23-2.11.23-3.16s-.19-1.83-.24-2.75c-.1-1.76.28-3.56-.06-5.29A4.86,4.86,0,0,1,34.4,42a1.23,1.23,0,0,1,.07-.42.7.7,0,0,1,.54-.46,1,1,0,0,1,.34,0,5.74,5.74,0,0,1,.64.19c.61.18,1.25.17,1.87.31.39.09.77.23,1.15.33a5.32,5.32,0,0,0,2,.18,14.27,14.27,0,0,1,2.13-.33,3.69,3.69,0,0,1,.87.15,1.7,1.7,0,0,1,.78.42,1.85,1.85,0,0,1,.36.56,2.5,2.5,0,0,1,.22,1c0,.17,0,.34,0,.51a1.51,1.51,0,0,0,0,.52,1.3,1.3,0,0,0,.22.46c.1.14.21.26.32.4A9.47,9.47,0,0,1,46.58,47a4.18,4.18,0,0,0,.83,1.15,10.9,10.9,0,0,0,1.64.91,1.61,1.61,0,0,1,.42.36,1.33,1.33,0,0,1,.17.43,1,1,0,0,1,0,.46h0" transform="translate(0)"/></g><g class="cls-20"><path id="path16493" class="cls-23" d="M34.4,42.56c.66-.18,1.23.32,1.71.7a1.75,1.75,0,0,0,1.13.21c.63,0,1.26.11,1.89,0,1.24-.11,2.46-.41,3.71-.46a2.8,2.8,0,0,1,1.78.27c.2.15.51.76.72.53a1.75,1.75,0,0,0-1.2-1.44c-.5-.08-1,.06-1.52,0-1.5,0-3-.32-4.49-.24-1,0-2.09,0-3.13-.08-.41-.08-.56.28-.78.42" transform="translate(0)"/></g></g><g id="g411"><path id="path4635-1" class="cls-24" d="M8.2,41a1.81,1.81,0,0,1,1-.1,2.64,2.64,0,0,1,1,.41,6.24,6.24,0,0,1,1.41,1.53c1,1.3,1.86,2.63,2.68,4,.67,1.12,1.28,2.27,2,3.32.51.68,1.07,1.32,1.58,2a6.84,6.84,0,0,1,1.18,2.25,4.49,4.49,0,0,1-.33,3.22,4.32,4.32,0,0,1-1.57,1.69,4.12,4.12,0,0,1-2.22.58,10.85,10.85,0,0,1-3.51-1.13c-2.34-.93-4.88-1.22-7.3-1.94-.74-.23-1.46-.49-2.21-.7a6.57,6.57,0,0,1-1-.31,1.61,1.61,0,0,1-.78-.65A1.46,1.46,0,0,1,0,54.44a2.31,2.31,0,0,1,.16-.78c.18-.5.47-.95.67-1.45a6,6,0,0,0,.33-2.56c0-.87-.18-1.72-.24-2.59A4.09,4.09,0,0,1,1,45.9a1.94,1.94,0,0,1,.51-1,2,2,0,0,1,1-.47,5.45,5.45,0,0,1,1.07-.07,9.55,9.55,0,0,0,1.07,0,2.64,2.64,0,0,0,1-.28,2.43,2.43,0,0,0,.73-.7,8.4,8.4,0,0,0,.53-.87,4.75,4.75,0,0,1,.55-.85A2.11,2.11,0,0,1,8.2,41" transform="translate(0)"/><g class="cls-25"><path id="path13596-6" class="cls-26" d="M8.71,41.57a1.63,1.63,0,0,1,.93-.06,2.12,2.12,0,0,1,.85.42,5.23,5.23,0,0,1,1.18,1.46c.8,1.3,1.59,2.62,2.33,4a25.23,25.23,0,0,0,1.78,3c.46.62,1,1.18,1.45,1.79a6.19,6.19,0,0,1,1.09,2A4,4,0,0,1,18,57a3.85,3.85,0,0,1-1.46,1.51,3.7,3.7,0,0,1-2,.51,11.41,11.41,0,0,1-3.23-1c-2-.74-4.25-.84-6.35-1.42-.75-.2-1.48-.48-2.23-.67a6.28,6.28,0,0,1-1-.28A1.62,1.62,0,0,1,.94,55a1.35,1.35,0,0,1-.17-.74,2.39,2.39,0,0,1,.16-.75c.19-.47.47-.91.66-1.38a5.55,5.55,0,0,0,.26-2.29c-.05-.77-.19-1.54-.24-2.31a3.92,3.92,0,0,1,0-1,1.87,1.87,0,0,1,.46-.92,1.88,1.88,0,0,1,1-.46,4.66,4.66,0,0,1,1.12,0,7,7,0,0,0,1.12,0,2.1,2.1,0,0,0,1.07-.32,2.11,2.11,0,0,0,.65-.77,8.4,8.4,0,0,0,.4-.93,4.82,4.82,0,0,1,.45-.91,1.76,1.76,0,0,1,.77-.66" transform="translate(0)"/></g><g class="cls-25"><path id="path4635-2-4" class="cls-27" d="M8.44,40.84a1.48,1.48,0,0,1,.93-.11,2.12,2.12,0,0,1,.85.42,4.71,4.71,0,0,1,1.09,1.52,42.49,42.49,0,0,0,2.09,3.8c.58.87,1.25,1.69,1.83,2.56a10.58,10.58,0,0,1,1.71,3.87,4.25,4.25,0,0,1-.28,2.79A3,3,0,0,1,15.32,57a3.5,3.5,0,0,1-1.86.34,11.29,11.29,0,0,1-2.85-.92c-1.67-.61-3.48-.75-5.2-1.21-.72-.2-1.43-.45-2.17-.6a7.89,7.89,0,0,1-1-.23,1.45,1.45,0,0,1-.77-.6,1.28,1.28,0,0,1-.13-.67,2.16,2.16,0,0,1,.18-.66c.18-.42.44-.81.58-1.25a3.78,3.78,0,0,0,0-2,14.78,14.78,0,0,1-.45-2,2.66,2.66,0,0,1,0-.89,1.62,1.62,0,0,1,.43-.79,1.78,1.78,0,0,1,1.07-.44,5.11,5.11,0,0,1,1.17.07,5.82,5.82,0,0,0,1.18.1,2,2,0,0,0,1.1-.36,1.9,1.9,0,0,0,.6-1,6.2,6.2,0,0,0,.19-1.13,4.32,4.32,0,0,1,.25-1.12,1.64,1.64,0,0,1,.75-.85" transform="translate(0)"/></g><path id="path4792-8" class="cls-28" d="M12,44c.53,1,.85,2,1.37,3s1,1.79,1.52,2.61c.21.36.72.92,1.23,1.78s.93,1.88,1.2,2.25c-.15-.43-.46-1.59-.83-2.41a11.4,11.4,0,0,0-1-1.62c-.49-.82-1-1.55-1.51-2.32-.7-1.08-1.22-2.27-2-3.29Z" transform="translate(0)"/></g></g><g id="g526"><path id="path29714-8-2" class="cls-29" d="M43.32,44a1,1,0,0,0-.55-.48,1.82,1.82,0,0,0-.73-.13c-.5,0-1,.13-1.5.09a8.78,8.78,0,0,1-1.23-.29,2.46,2.46,0,0,0-1.29,0,1.91,1.91,0,0,0-1.1.81,2.66,2.66,0,0,0-.35,1.17,7.23,7.23,0,0,0,0,1.23,6.45,6.45,0,0,0,.14.88,2.35,2.35,0,0,0,.35.81,2.26,2.26,0,0,0,1,.75,2.82,2.82,0,0,0,2,0,5.68,5.68,0,0,0,2.71-2.48A5.76,5.76,0,0,0,43.36,45a2.32,2.32,0,0,0,.07-.52,1.16,1.16,0,0,0-.11-.52" transform="translate(0)"/><path id="path29714-8-3-0" class="cls-30" d="M43.32,43.33a1,1,0,0,0-.55-.35,2.52,2.52,0,0,0-.73-.09c-.5,0-1,.1-1.5.07a10.22,10.22,0,0,1-1.23-.22,3.73,3.73,0,0,0-1.29,0,2,2,0,0,0-1.1.59,1.58,1.58,0,0,0-.35.85,3.82,3.82,0,0,0,0,.89,3.38,3.38,0,0,0,.14.63,1.49,1.49,0,0,0,.35.59,2.42,2.42,0,0,0,1,.54,3.92,3.92,0,0,0,2,0A5.38,5.38,0,0,0,42.88,45a3.57,3.57,0,0,0,.48-.9,1.33,1.33,0,0,0,.07-.38.67.67,0,0,0-.11-.38" transform="translate(0)"/></g><g id="g545"><path id="path29714-5-4" class="cls-2" d="M44.27,41.89a1.38,1.38,0,0,0-.4-.58,2.35,2.35,0,0,0-.6-.38,7.14,7.14,0,0,0-1.38-.34l-1.32-.26a3.82,3.82,0,0,0-1.39,0,2.34,2.34,0,0,0-1.06.57,3,3,0,0,0-.71,1,4.29,4.29,0,0,0-.33,2.1,2.52,2.52,0,0,0,.53,1.48,2.28,2.28,0,0,0,1.1.65,3.72,3.72,0,0,0,2.19,0,5.76,5.76,0,0,0,2.89-2.18,3.22,3.22,0,0,0,.52-1.09,1.57,1.57,0,0,0,0-.91" transform="translate(0)"/><g class="cls-31"><path id="path29714-3-9-9" class="cls-32" d="M39.43,40.1a1.84,1.84,0,0,0-.33,0,2.49,2.49,0,0,0-2,2.63,2.31,2.31,0,0,1,.28-1,2.07,2.07,0,0,1,1.4-1,4,4,0,0,1,1.1,0c.35,0,.7.09,1,.17a4.13,4.13,0,0,1,1.51.6,2.26,2.26,0,0,1,.28.25.73.73,0,0,1,.17.34.8.8,0,0,1-.1.54,2.44,2.44,0,0,1-.35.43l-.34.31a3.78,3.78,0,0,0,1.47-.54,1.41,1.41,0,0,0,.46-.48.89.89,0,0,0,.1-.64,1.13,1.13,0,0,0-.21-.39,1.64,1.64,0,0,0-.35-.29,4,4,0,0,0-1.83-.7c-.42-.08-.84-.14-1.26-.2a5.75,5.75,0,0,0-1,0Z" transform="translate(0)"/></g><g class="cls-31"><path id="path29714-3-9-3-8" class="cls-33" d="M39.43,40.1a1.84,1.84,0,0,0-.33,0,2.49,2.49,0,0,0-2,2.63,2.31,2.31,0,0,1,.28-1,2.07,2.07,0,0,1,1.4-1,4,4,0,0,1,1.1,0c.35,0,.7.09,1,.17a4.13,4.13,0,0,1,1.51.6,2.26,2.26,0,0,1,.28.25.73.73,0,0,1,.17.34.8.8,0,0,1-.1.54,2.44,2.44,0,0,1-.35.43l-.34.31a3.78,3.78,0,0,0,1.47-.54,1.41,1.41,0,0,0,.46-.48.89.89,0,0,0,.1-.64,1.13,1.13,0,0,0-.21-.39,1.64,1.64,0,0,0-.35-.29,4,4,0,0,0-1.83-.7c-.42-.08-.84-.14-1.26-.2a5.75,5.75,0,0,0-1,0Z" transform="translate(0)"/></g></g><g id="g777"><g id="g669"><g id="g643"><path id="path28795-9-5" class="cls-34" d="M19.64,9a1.62,1.62,0,0,0-1,.43,2.32,2.32,0,0,0-.56.91A5.36,5.36,0,0,0,18,12.46a6.24,6.24,0,0,0,.33,1.92,2.75,2.75,0,0,0,.53.82,1.75,1.75,0,0,0,.83.49,1.72,1.72,0,0,0,.9,0,2,2,0,0,0,.78-.48A2.65,2.65,0,0,0,22,14a4.46,4.46,0,0,0,.15-1.32,5.42,5.42,0,0,0-.26-1.65,3.64,3.64,0,0,0-.84-1.43,2.42,2.42,0,0,0-.65-.49A1.74,1.74,0,0,0,19.64,9" transform="translate(0)"/><g id="g605"><path id="path29453-9" class="cls-2" d="M18.77,12a2.84,2.84,0,0,0,.08,1.36,2.13,2.13,0,0,0,.48.77,1.67,1.67,0,0,0,.47.37.9.9,0,0,0,.58.07.92.92,0,0,0,.45-.3,1.59,1.59,0,0,0,.24-.49,2.73,2.73,0,0,0,0-1.6,2.16,2.16,0,0,0-.61-1,1.41,1.41,0,0,0-.5-.26.87.87,0,0,0-.55.05,1,1,0,0,0-.44.43,2.59,2.59,0,0,0-.18.6" transform="translate(0)"/><path id="path29465-8" class="cls-35" d="M19.73,11.62c.05.13.22.18.31.28a1.46,1.46,0,0,1,.22.33c.09.24-.09.59.1.76a.21.21,0,0,0,.24,0c.24-.21.18-.64.09-.94a1.09,1.09,0,0,0-.54-.65c-.12-.06-.29-.11-.39,0A.23.23,0,0,0,19.73,11.62Z" transform="translate(0)"/></g><g class="cls-36"><path id="path29551-9" class="cls-37" d="M18.87,10.42a3,3,0,0,1,1.83-.34,11.89,11.89,0,0,1,1.84.41,8.48,8.48,0,0,1,1.32.43,2.32,2.32,0,0,1,1,.89L25,12a.54.54,0,0,0,.14.16.28.28,0,0,0,.21.07.23.23,0,0,0,.11,0,.19.19,0,0,0,.07-.08.24.24,0,0,0,0-.12l0-.13a7.88,7.88,0,0,0-.78-1.53c-.17-.31-.3-.63-.47-.93A5.91,5.91,0,0,0,21.73,7a8.91,8.91,0,0,0-3.44-.86,17.64,17.64,0,0,0-4.1.32A5.57,5.57,0,0,0,12.48,7a2.32,2.32,0,0,0-.68.57,1.62,1.62,0,0,0-.36.8,1.75,1.75,0,0,0,.1.85A2.42,2.42,0,0,0,12,10a10,10,0,0,0,1.25,1.18,11.57,11.57,0,0,0,1.31,1.12,2.87,2.87,0,0,0,.77.37,1.79,1.79,0,0,0,.86,0,2,2,0,0,0,.8-.38,4.17,4.17,0,0,0,.63-.63,5.38,5.38,0,0,1,1.27-1.25" transform="translate(0)"/></g><path id="path28795-9-2-2" class="cls-38" d="M21.12,8.57a4.87,4.87,0,0,1,1.14,1.68,2.91,2.91,0,0,0-.73-1.68,3.81,3.81,0,0,0-.94-.64,2.61,2.61,0,0,0-.84-.22h-.29s-.07,0,.06,0a2.76,2.76,0,0,1,.71.22A3.49,3.49,0,0,1,21.12,8.57Z" transform="translate(0)"/></g><g id="g652"><path id="path28795-3" class="cls-39" d="M26,9a3.36,3.36,0,0,0-1.27,1.57,3.83,3.83,0,0,0,.11,2.52,4.14,4.14,0,0,0,1.49,2.13,2.69,2.69,0,0,0,1.21.47,2.25,2.25,0,0,0,1.28-.22,2.53,2.53,0,0,0,1.07-1.17,4.42,4.42,0,0,0,.35-1.56,5.3,5.3,0,0,0-.25-2,3.44,3.44,0,0,0-1.31-1.75,2.59,2.59,0,0,0-1-.39,2.29,2.29,0,0,0-1.1.12A2.94,2.94,0,0,0,26,9" transform="translate(0)"/><g id="g613"><path id="path28879-6" class="cls-2" d="M27.3,10.67a1.22,1.22,0,0,0-.59.2,1.48,1.48,0,0,0-.46.44,2.31,2.31,0,0,0-.36,1.2,2.49,2.49,0,0,0,.13.94,1.73,1.73,0,0,0,.53.78,1.54,1.54,0,0,0,.89.35,1.51,1.51,0,0,0,.92-.27,1.67,1.67,0,0,0,.51-.58A2.36,2.36,0,0,0,29.1,13a2.26,2.26,0,0,0-.22-1.33,1.87,1.87,0,0,0-1-.9,1.27,1.27,0,0,0-.58-.09" transform="translate(0)"/><path id="path28891-5" class="cls-40" d="M27.81,12.05c-.18.07-.46,0-.53.2a.26.26,0,0,0,.12.31.52.52,0,0,0,.61-.28.22.22,0,0,0-.1-.27S27.84,12,27.81,12.05Z" transform="translate(0)"/><path id="path28887-6" class="cls-41" d="M28.61,12.51c.23-.24-.17-.86-.48-1.11s-.89-.38-.86-.18.32.46.52.65S28.5,12.62,28.61,12.51Z" transform="translate(0)"/></g><g class="cls-42"><path id="path28972-5" class="cls-43" d="M23.89,11a4.68,4.68,0,0,1,1.64-.89,4.52,4.52,0,0,1,3.71.46c.37.24.71.53,1.06.81a4.36,4.36,0,0,0,1.13.68,1.73,1.73,0,0,0,.71.1,1.16,1.16,0,0,0,.6-.23,1.41,1.41,0,0,0,.44-.47,2,2,0,0,0,.26-1.25,6.29,6.29,0,0,0-1-2.39,8.13,8.13,0,0,0-.4-.71,3.9,3.9,0,0,0-2-1.4,12.77,12.77,0,0,0-2.45-.47,4.59,4.59,0,0,0-1.11,0,8.71,8.71,0,0,0-1.24.33c-.2,0-.4.08-.59.14a1.74,1.74,0,0,0-.55.26,1.4,1.4,0,0,0-.44.76,2.37,2.37,0,0,0,0,.88A9.4,9.4,0,0,1,24,9.33c0,.4-.14.8-.12,1.21a1.34,1.34,0,0,0,.05.35" transform="translate(0)"/></g><path id="path28795-92-2" class="cls-44" d="M28,7.31a1.84,1.84,0,0,0-.26.4,3.55,3.55,0,0,1,1.22.51,4.86,4.86,0,0,1,1.64,1.95,2.43,2.43,0,0,0,.24-.32,4.82,4.82,0,0,0-1.68-2A3.54,3.54,0,0,0,28,7.31Z" transform="translate(0)"/></g></g><g id="g735"><path id="path28849-2" class="cls-45" d="M21.33,13.72c.36-.4.6-.89,1-1.31a2.15,2.15,0,0,1,.6-.52,1.3,1.3,0,0,1,.77-.19,1.34,1.34,0,0,1,.79.38,2.34,2.34,0,0,1,.51.73,3.68,3.68,0,0,0,.4.76,4,4,0,0,0,.7.59,1.93,1.93,0,0,1,.33.31,1,1,0,0,1,.2.41.91.91,0,0,1,0,.46,1,1,0,0,1-.25.38,1.54,1.54,0,0,1-.84.38c-.61.08-1.23-.1-1.85-.08s-1.24.24-1.87.21a1.65,1.65,0,0,1-.89-.26,1.15,1.15,0,0,1-.32-.34.91.91,0,0,1-.05-.88,1.63,1.63,0,0,1,.24-.38c.19-.23.42-.43.62-.65" transform="translate(0)"/><g id="g712"><path id="path28461-2" class="cls-46" d="M17.93,17.59a.49.49,0,0,0,.06.17.92.92,0,0,0,.22.22,2,2,0,0,0,.27.17,4.86,4.86,0,0,1,1.19,1.16A7.64,7.64,0,0,0,21.15,21a3.11,3.11,0,0,0,1.47.53,4.92,4.92,0,0,0,1.83-.21A7,7,0,0,0,26,20.61a15.38,15.38,0,0,1,2.72-1.79c.23-.09.46-.14.68-.25a1.11,1.11,0,0,0,.52-.46,2.56,2.56,0,0,0,.13-.68c0-.24.11-.47.15-.71a1.21,1.21,0,0,0-.06-.73,1,1,0,0,0-.42-.42,1.5,1.5,0,0,0-.59-.14,8.4,8.4,0,0,0-1.21.12c-.53,0-1.07,0-1.61,0s-1.33.17-2,.2-1.52-.08-2.29-.11a4.57,4.57,0,0,0-1,0,2.3,2.3,0,0,0-.92.36,7.31,7.31,0,0,0-.72.64A1.56,1.56,0,0,1,19,17a.92.92,0,0,1-.46.11,1,1,0,0,0-.25,0,.38.38,0,0,0-.13.09.4.4,0,0,0-.1.12,3.07,3.07,0,0,0-.17.31" transform="translate(0)"/><path id="path28487-2" class="cls-47" d="M20.92,18.41A1.34,1.34,0,0,0,21.8,20,1.62,1.62,0,0,0,23,19.87a1.32,1.32,0,0,0,.54-.48,1.06,1.06,0,0,0,.12-.34.63.63,0,0,0,0-.36.76.76,0,0,0-.23-.33,1.08,1.08,0,0,0-.35-.19,2.33,2.33,0,0,0-.79-.07,8.17,8.17,0,0,0-1.21.15" transform="translate(0)"/><path id="path27476-7-8" class="cls-48" d="M19.61,15.9c-.27.16-.53.34-.79.52a1.1,1.1,0,0,0-.34.34.82.82,0,0,0-.06.34c0,.12,0,.23,0,.35s0,.15,0,.23a.5.5,0,0,0,0,.12.24.24,0,0,0,.05.1.24.24,0,0,0,.13.07l.15,0a1.48,1.48,0,0,1,.63.36c.18.17.34.35.53.5a3,3,0,0,0,1.85.6,8.19,8.19,0,0,0,2-.27,11.5,11.5,0,0,0,1.5-.41,6.83,6.83,0,0,0,2-1.22,6.16,6.16,0,0,1,.84-.69c.27-.17.57-.28.84-.44l.08-.05a.18.18,0,0,0,.05-.07.22.22,0,0,0,0-.14.54.54,0,0,0-.07-.13l-.12-.12a1.88,1.88,0,0,0-1.06-.36c-.37,0-.75,0-1.13-.07a7.43,7.43,0,0,1-1-.3,6.94,6.94,0,0,0-1.09-.27,7.21,7.21,0,0,0-2.62.07,7.77,7.77,0,0,0-2.33.9" transform="translate(0)"/><path id="path27476-4" class="cls-49" d="M19.52,15a4.69,4.69,0,0,0-1,.95,2.18,2.18,0,0,0-.41.69c-.06.2-.09.41-.13.61a2,2,0,0,0,0,.24.49.49,0,0,0,0,.12l.06.1a.3.3,0,0,0,.18.08,1.25,1.25,0,0,0,.19,0,1.72,1.72,0,0,1,.81.34c.24.17.47.36.72.52a3.68,3.68,0,0,0,1.86.53,8,8,0,0,0,2-.2,8.77,8.77,0,0,0,1.5-.41,9.19,9.19,0,0,0,2-1.22,9.34,9.34,0,0,0,.84-.69,3.07,3.07,0,0,1,.26-.25.85.85,0,0,1,.32-.18,1,1,0,0,1,.55,0,2,2,0,0,0,.42,0,.52.52,0,0,0,.21,0,.38.38,0,0,0,.17-.12.39.39,0,0,0,.09-.26A.5.5,0,0,0,30,15.6a.83.83,0,0,0-.42-.34,3.6,3.6,0,0,0-.73-.21,11.25,11.25,0,0,1-2.19-.8l-1-.55a5.56,5.56,0,0,0-1.09-.48,4.2,4.2,0,0,0-2.62.12A5.55,5.55,0,0,0,19.52,15h0" transform="translate(0)"/><path id="path28357-7" class="cls-50" d="M25.5,15.18a.36.36,0,0,0-.18-.12.55.55,0,0,0-.22,0,1,1,0,0,0-.4.18,5,5,0,0,0-.92.86A3.31,3.31,0,0,0,23,17.56a1.29,1.29,0,0,0,0,.28.47.47,0,0,0,.11.25.37.37,0,0,0,.22.1.49.49,0,0,0,.24,0A1.27,1.27,0,0,0,24,17.9a4.94,4.94,0,0,0,1.53-2.2,1.26,1.26,0,0,0,0-.27.38.38,0,0,0-.08-.25" transform="translate(0)"/><g id="g681"><path id="path28396-7" class="cls-51" d="M23.89,13.93c0,.15.28.12.42.19s.23.21.36.21.34-.05.36-.18-.23-.28-.39-.34a.89.89,0,0,0-.68,0s-.09.09-.07.14Z" transform="translate(0)"/><path id="path28398-7" class="cls-52" d="M21.58,13.84c-.18-.06-.48.26-.38.42s.11.1.16.07.15-.21.24-.27S21.65,13.86,21.58,13.84Z" transform="translate(0)"/></g><g class="cls-53"><path id="path28570-8" class="cls-54" d="M30.14,16.21a.74.74,0,0,1-.65.71h0c-.32,0-.54-.32-.5-.71a.75.75,0,0,1,.66-.72c.32,0,.54.32.49.72Z" transform="translate(0)"/></g></g></g></g></g></g></g></svg>