<svg id="Layer_1" data-name="Layer 1" xmlns="http://www.w3.org/2000/svg" viewBox="0 0 140 29.86"><defs><style>.cls-1{fill:#737373;}.cls-2{fill:#f25022;}.cls-3{fill:#7fba00;}.cls-4{fill:#00a4ef;}.cls-5{fill:#ffb900;}</style></defs><path class="cls-1" d="M58.3,21.51V39.43H55.19v-14h0L49.57,39.43H47.5l-5.68-14h0V39.43H38.9V21.51h4.47l5.14,13.27h.08L54,21.51Zm2.6,1.37a1.64,1.64,0,0,1,.54-1.25,2,2,0,0,1,2.62,0,1.69,1.69,0,0,1,.52,1.25A1.59,1.59,0,0,1,64,24.13a1.85,1.85,0,0,1-1.31.5,1.81,1.81,0,0,1-1.3-.51,1.59,1.59,0,0,1-.53-1.24Zm3.31,3.7V39.44h-3V26.58Zm9.18,10.65a4.17,4.17,0,0,0,1.48-.31,6.45,6.45,0,0,0,1.5-.83V38.9a5.84,5.84,0,0,1-1.66.62,9,9,0,0,1-2,.22,6.13,6.13,0,0,1-6.36-5.86v-.5a7.32,7.32,0,0,1,1.81-5.1,6.54,6.54,0,0,1,5.14-2,6.65,6.65,0,0,1,1.72.22,5.38,5.38,0,0,1,1.39.5v2.9a6.3,6.3,0,0,0-1.43-.8,4.29,4.29,0,0,0-1.5-.28A3.82,3.82,0,0,0,70.57,30a4.37,4.37,0,0,0-1.1,3.13,4.21,4.21,0,0,0,1,3,3.85,3.85,0,0,0,2.88,1.08ZM85,26.37a4.87,4.87,0,0,1,.65.05,2.62,2.62,0,0,1,.48.13v3.06a2.2,2.2,0,0,0-.69-.33,3.45,3.45,0,0,0-1.1-.16,2.38,2.38,0,0,0-1.89.94,4.55,4.55,0,0,0-.77,2.9v6.48h-3V26.59h3v2h0A3.6,3.6,0,0,1,83,27a3.42,3.42,0,0,1,2-.58Zm1.3,6.82a6.94,6.94,0,0,1,1.8-5,6.63,6.63,0,0,1,5-1.87,6.15,6.15,0,0,1,4.7,1.8,6.73,6.73,0,0,1,1.69,4.84,6.86,6.86,0,0,1-1.8,5,6.53,6.53,0,0,1-4.9,1.85A6.41,6.41,0,0,1,88.05,38a6.54,6.54,0,0,1-1.76-4.8Zm3.15-.1a4.6,4.6,0,0,0,.91,3.08A3.25,3.25,0,0,0,93,37.23a3,3,0,0,0,2.51-1.06A5,5,0,0,0,96.34,33a4.75,4.75,0,0,0-.89-3.13A3.13,3.13,0,0,0,93,28.83a3.19,3.19,0,0,0-2.58,1.11,4.72,4.72,0,0,0-.94,3.15ZM104,30a1.29,1.29,0,0,0,.41,1,7,7,0,0,0,1.83.94,6.08,6.08,0,0,1,2.54,1.63,3.41,3.41,0,0,1,.73,2.19,3.52,3.52,0,0,1-1.39,2.9,5.93,5.93,0,0,1-3.77,1.1,8.88,8.88,0,0,1-1.77-.19,7.47,7.47,0,0,1-1.65-.5v-3a7.23,7.23,0,0,0,1.77.91,5.06,5.06,0,0,0,1.72.34,3.2,3.2,0,0,0,1.52-.29,1,1,0,0,0,.48-1A1.34,1.34,0,0,0,105.9,35,7.53,7.53,0,0,0,104,34a5.87,5.87,0,0,1-2.38-1.57,3.44,3.44,0,0,1-.69-2.23,3.5,3.5,0,0,1,1.37-2.85,5.53,5.53,0,0,1,3.59-1.12,9.66,9.66,0,0,1,1.51.15,6.85,6.85,0,0,1,1.39.39v2.87a6.4,6.4,0,0,0-1.39-.68,4.56,4.56,0,0,0-1.59-.29,2.26,2.26,0,0,0-1.34.34A1.08,1.08,0,0,0,104,30Zm6.8,3.23a6.94,6.94,0,0,1,1.8-5,6.64,6.64,0,0,1,5-1.87,6.13,6.13,0,0,1,4.7,1.8,6.74,6.74,0,0,1,1.7,4.84,6.86,6.86,0,0,1-1.8,5,6.53,6.53,0,0,1-4.9,1.85A6.41,6.41,0,0,1,112.55,38a6.54,6.54,0,0,1-1.76-4.8Zm3.16-.1a4.66,4.66,0,0,0,.9,3.08,3.28,3.28,0,0,0,2.62,1.06A3.05,3.05,0,0,0,120,36.17a5,5,0,0,0,.86-3.15,4.77,4.77,0,0,0-.89-3.13,3.5,3.5,0,0,0-5.07.05,4.65,4.65,0,0,0-.94,3.15Zm20.07-4h-4.51V39.43h-3.06V29.06H124.3V26.57h2.15V24.79a4.4,4.4,0,0,1,1.32-3.32,4.6,4.6,0,0,1,3.36-1.28,7.93,7.93,0,0,1,1,.06,4,4,0,0,1,.75.16V23a2.66,2.66,0,0,0-.53-.21,2.8,2.8,0,0,0-.86-.13,1.84,1.84,0,0,0-1.46.6A2.55,2.55,0,0,0,129.5,25v1.55H134V23.66l3-.92v3.81h3.07V29H137v6a2.58,2.58,0,0,0,.42,1.66,1.74,1.74,0,0,0,1.36.48,2.34,2.34,0,0,0,.63-.12,3.73,3.73,0,0,0,.64-.3v2.49a3.45,3.45,0,0,1-1,.29,6.42,6.42,0,0,1-1.31.15,3.75,3.75,0,0,1-2.87-1,4.38,4.38,0,0,1-1-3.07Z" transform="translate(-0.1 -15.54)"/><rect class="cls-2" width="14.19" height="14.19"/><rect class="cls-3" x="15.67" width="14.19" height="14.19"/><rect class="cls-4" y="15.67" width="14.19" height="14.19"/><rect class="cls-5" x="15.67" y="15.67" width="14.19" height="14.19"/></svg>