<svg width="32" height="32" viewBox="0 0 32 32" fill="none" xmlns="http://www.w3.org/2000/svg">
<path d="M9.5 31C9.40213 30.9986 9.30682 30.9686 9.22589 30.9135C9.14495 30.8585 9.08195 30.7809 9.04468 30.6904C9.00742 30.5999 8.99753 30.5005 9.01625 30.4044C9.03497 30.3084 9.08147 30.2199 9.15 30.15L22.85 16.5L9.2 2.84002C9.10584 2.74587 9.05295 2.61817 9.05295 2.48502C9.05295 2.35187 9.10584 2.22417 9.2 2.13002C9.29415 2.03587 9.42185 1.98297 9.555 1.98297C9.68815 1.98297 9.81584 2.03587 9.91 2.13002L23.91 16.13C23.9578 16.1749 23.9959 16.2291 24.022 16.2893C24.0481 16.3495 24.0615 16.4144 24.0615 16.48C24.0615 16.5456 24.0481 16.6105 24.022 16.6707C23.9959 16.7309 23.9578 16.7851 23.91 16.83L9.85 30.9C9.75004 30.9761 9.62508 31.0118 9.5 31Z" fill="#1B1C1D"/>
</svg>
