<svg width="12" height="12" viewBox="0 0 12 12" fill="none" xmlns="http://www.w3.org/2000/svg">
<g clip-path="url(#clip0)">
<path d="M11.5 6.5H7V2C7 1.86739 6.94732 1.74021 6.85355 1.64645C6.75979 1.55268 6.63261 1.5 6.5 1.5C6.36739 1.5 6.24021 1.55268 6.14645 1.64645C6.05268 1.74021 6 1.86739 6 2V6.5H1.5C1.36739 6.5 1.24021 6.55268 1.14645 6.64645C1.05268 6.74021 1 6.86739 1 7C1 7.13261 1.05268 7.25979 1.14645 7.35355C1.24021 7.44732 1.36739 7.5 1.5 7.5H6V12C6 12.1326 6.05268 12.2598 6.14645 12.3536C6.24021 12.4473 6.36739 12.5 6.5 12.5C6.63261 12.5 6.75979 12.4473 6.85355 12.3536C6.94732 12.2598 7 12.1326 7 12V7.5H11.5C11.6326 7.5 11.7598 7.44732 11.8536 7.35355C11.9473 7.25979 12 7.13261 12 7C12 6.86739 11.9473 6.74021 11.8536 6.64645C11.7598 6.55268 11.6326 6.5 11.5 6.5Z" fill="#1B1C1D"/>
</g>
<defs>
<clipPath id="clip0">
<rect width="12" height="12" fill="white" transform="translate(0 0.5)"/>
</clipPath>
</defs>
</svg>
