<svg width="32" height="32" viewBox="0 0 32 32" fill="none" xmlns="http://www.w3.org/2000/svg">
<path d="M22.56 31C22.4269 30.9993 22.2986 30.9495 22.2 30.86L8.20001 16.86C8.15218 16.8151 8.11406 16.7609 8.088 16.7007C8.06194 16.6405 8.04849 16.5756 8.04849 16.51C8.04849 16.4444 8.06194 16.3795 8.088 16.3193C8.11406 16.2591 8.15218 16.2049 8.20001 16.16L22.2 2.16002C22.2935 2.0684 22.4191 2.01709 22.55 2.01709C22.6809 2.01709 22.8065 2.0684 22.9 2.16002C22.9469 2.2065 22.9841 2.2618 23.0095 2.32273C23.0348 2.38366 23.0479 2.44901 23.0479 2.51502C23.0479 2.58102 23.0348 2.64638 23.0095 2.70731C22.9841 2.76824 22.9469 2.82354 22.9 2.87002L9.21001 16.5L22.91 30.19C23.0023 30.2852 23.0538 30.4125 23.0538 30.545C23.0538 30.6775 23.0023 30.8049 22.91 30.9C22.8084 30.9729 22.6847 31.0082 22.56 31Z" fill="#1B1C1D"/>
</svg>
