<svg width="16" height="17" viewBox="0 0 16 17" fill="none" xmlns="http://www.w3.org/2000/svg">
<path d="M11.3598 11.1502C12.2762 10.0511 12.7335 8.64084 12.6365 7.21303C12.5395 5.78522 11.8958 4.44978 10.8391 3.48461C9.78247 2.51944 8.39436 1.99886 6.96363 2.03121C5.53289 2.06355 4.16973 2.64633 3.15778 3.65827C2.14584 4.67021 1.56307 6.03338 1.53072 7.46411C1.49837 8.89485 2.01895 10.283 2.98412 11.3396C3.94929 12.3962 5.28473 13.04 6.71254 13.137C8.14035 13.234 9.55057 12.7767 10.6498 11.8602L13.6498 14.8602C13.6946 14.9081 13.7489 14.9462 13.8091 14.9723C13.8693 14.9983 13.9342 15.0118 13.9998 15.0118C14.0653 15.0118 14.1302 14.9983 14.1904 14.9723C14.2506 14.9462 14.3049 14.9081 14.3498 14.8602C14.3976 14.8153 14.4357 14.7611 14.4618 14.7009C14.4878 14.6407 14.5013 14.5758 14.5013 14.5102C14.5013 14.4446 14.4878 14.3797 14.4618 14.3195C14.4357 14.2593 14.3976 14.2051 14.3498 14.1602L11.3598 11.1502ZM2.49975 7.58024C2.49777 6.67398 2.7647 5.7875 3.26676 5.03301C3.76881 4.27852 4.48341 3.68993 5.32012 3.34175C6.15683 2.99357 7.07803 2.90144 7.96712 3.07703C8.85621 3.25262 9.67322 3.68803 10.3147 4.32815C10.9563 4.96828 11.3935 5.78434 11.571 6.67304C11.7485 7.56175 11.6584 8.48314 11.3121 9.32061C10.9657 10.1581 10.3787 10.874 9.6253 11.3777C8.87191 11.8814 7.98602 12.1502 7.07975 12.1502C5.86679 12.1502 4.70336 11.6691 3.84473 10.8123C2.9861 9.95557 2.5024 8.7932 2.49975 7.58024Z" fill="#1B1C1D"/>
</svg>
