<svg width="105" height="25" viewBox="0 0 105 25" fill="none" xmlns="http://www.w3.org/2000/svg">
<g clip-path="url(#clip0)">
<g clip-path="url(#clip1)">
<path d="M8.35449 6.05225C8.42383 6.08691 8.49316 6.12158 8.54516 6.17358L11.5438 9.17225C11.6652 9.29358 11.7345 9.44958 11.7345 9.62291V23.4549C11.7345 23.5763 11.6478 23.6629 11.5265 23.6629C11.4745 23.6629 11.4225 23.6456 11.3878 23.6109L8.56249 20.7856C8.44116 20.6642 8.37183 20.5083 8.37183 20.3349V6.05225H8.35449Z" fill="url(#paint0_linear)"/>
<path d="M16.6056 6.19092C16.6576 6.13892 16.7269 6.08691 16.7963 6.05225V20.3349C16.7963 20.5083 16.7269 20.6642 16.6056 20.7856L13.7803 23.6109C13.6936 23.6976 13.5723 23.6976 13.4856 23.6109C13.4509 23.5763 13.4336 23.5242 13.4336 23.4722V9.64025C13.4336 9.48425 13.5029 9.31092 13.6243 9.20692L16.6056 6.19092Z" fill="url(#paint1_linear)"/>
<path d="M22.0486 17.1801L21.8406 16.9721V14.0254H18.9806C18.9286 14.0254 18.8766 14.0427 18.8246 14.0947L16.7793 16.1401L23.3313 22.7094C23.4526 22.8307 23.6086 22.8827 23.782 22.8827H27.2313C27.3526 22.8827 27.4393 22.7961 27.4393 22.6747C27.4393 22.6227 27.422 22.5707 27.3873 22.5361L22.0486 17.1801Z" fill="url(#paint2_linear)"/>
<path d="M17.0384 6C16.8651 6 16.7091 6.06933 16.5878 6.19067L13.5891 9.18933C13.5371 9.24133 13.5024 9.31067 13.4678 9.36267H21.8398V16.9547L22.0478 17.1627L25.0291 14.1987C25.1504 14.0773 25.2198 13.9213 25.2198 13.748V9.64C25.2198 9.46667 25.1504 9.31067 25.0291 9.18933L22.0304 6.19067C21.9091 6.06933 21.7531 6 21.5798 6H17.0384Z" fill="url(#paint3_linear)"/>
<path d="M8.528 6.19067C8.40667 6.06933 8.25067 6 8.07733 6H0.208C0.0866668 6 0 6.08667 0 6.208C0 6.26 0.0173333 6.312 0.0693333 6.364L2.89467 9.18933C3.016 9.31067 3.172 9.38 3.34533 9.38H11.3187C11.544 9.38 11.7347 9.57067 11.7347 9.796V9.64C11.7347 9.46667 11.6653 9.31067 11.544 9.18933L8.528 6.19067Z" fill="url(#paint4_linear)"/>
<path d="M16.5883 6.19067C16.7096 6.06933 16.8656 6 17.0389 6H21.5803C21.7536 6 21.9096 6.06933 22.0309 6.19067L25.0296 9.18933C25.1509 9.31067 25.2203 9.46667 25.2203 9.64V9.796C25.2203 9.57067 25.0296 9.38 24.8043 9.38H13.8496C13.6243 9.38 13.4336 9.57067 13.4336 9.796V9.64C13.4336 9.46667 13.5029 9.31067 13.6243 9.18933L16.5883 6.19067Z" fill="url(#paint5_linear)"/>
<path d="M25.2195 13.5923C25.2195 13.8176 25.0288 14.0083 24.8035 14.0083H19.1528C19.1008 14.0083 19.0488 14.0603 19.0488 14.1123C19.0488 14.147 19.0662 14.1643 19.0835 14.1816L22.0648 17.163L25.0462 14.199C25.1675 14.0776 25.2368 13.9216 25.2368 13.7483V13.5923H25.2195Z" fill="url(#paint6_linear)"/>
<path d="M104 17.3014C104 15.8801 103.185 15.3428 101.192 14.8401C99.9959 14.5454 99.6839 14.3028 99.6839 13.8868C99.6839 13.4708 100.065 13.1934 100.845 13.1934C101.712 13.2281 102.544 13.4534 103.307 13.8694L103.549 12.3441C102.7 11.9801 101.781 11.8068 100.845 11.8068C99.0426 11.8068 97.9853 12.7254 97.9853 14.0081C97.9853 15.3948 98.7653 15.9148 100.637 16.3828C101.937 16.6948 102.301 16.9028 102.301 17.4574C102.301 17.9601 101.799 18.2721 100.915 18.2721C99.9093 18.2374 98.9213 17.9428 98.0546 17.3881L97.8119 18.9308C98.7479 19.3988 99.7879 19.6414 100.828 19.6588C102.908 19.6588 104 18.7748 104 17.3014ZM96.9106 19.5028V11.9108H95.0733V17.0588C94.4666 17.6481 93.8253 18.0294 93.1839 18.0294C92.4386 18.0294 92.1266 17.5788 92.1266 16.9028V11.8934H90.2893V17.3708C90.2893 18.7748 91.0693 19.6241 92.5599 19.6241C93.5999 19.6241 94.4493 19.0868 95.1946 18.4108L95.4546 19.4681L96.9106 19.5028ZM89.1799 19.5028V11.9108H87.3599V19.5028H89.1799ZM88.2786 8.58275C88.8679 8.58275 89.3359 9.05075 89.3359 9.64009C89.3359 10.2294 88.8679 10.6974 88.2786 10.6974C87.6893 10.6974 87.2213 10.2294 87.2213 9.64009C87.2213 9.05075 87.6893 8.58275 88.2786 8.58275ZM84.4479 16.9721C83.9106 17.6308 83.3213 18.0468 82.5759 18.0468C81.6573 18.0468 80.9813 17.3361 80.9813 15.8454C80.9813 14.1814 81.7786 13.3668 82.8533 13.3668C83.4079 13.3494 83.9626 13.4708 84.4479 13.6961V16.9721ZM86.2679 19.5028V8.21875L84.4479 8.53075V12.1881C83.8586 11.9974 83.2346 11.8934 82.5933 11.8934C80.7559 11.8934 79.1266 13.1414 79.1266 15.9494C79.1266 18.4801 80.4613 19.6588 82.1253 19.6588C83.2346 19.6588 83.9973 19.1041 84.5693 18.4628L84.7253 19.5028H86.2679ZM76.544 17.4228C76.024 17.9428 75.3306 18.2374 74.6026 18.2721C73.9786 18.2721 73.58 17.9254 73.58 17.3881C73.58 16.6601 74.152 16.0188 76.5613 15.7414V17.4228H76.544ZM78.3639 19.5028V14.3374C78.3639 12.5521 77.3933 11.8241 75.3826 11.8241C74.3253 11.8241 73.268 12.0321 72.2973 12.4308L72.5226 13.8868C73.3546 13.5228 74.256 13.3148 75.1746 13.2801C76.0413 13.2801 76.5613 13.5921 76.5613 14.4068V14.6494C73.3373 14.9614 71.7773 15.7414 71.7773 17.5614C71.7773 18.8614 72.6786 19.6414 74.0306 19.6414C75.036 19.6414 75.9893 19.2254 76.6826 18.5148L76.8559 19.4854H78.3639V19.5028ZM71.4653 19.2254L68.5533 15.2561C69.8706 14.8401 70.7373 13.9214 70.7373 12.4308C70.7373 10.4894 69.3333 9.38009 67.0106 9.38009H63.804V19.5028H65.6933V15.5854H66.612L69.4546 19.5894L71.4653 19.2254ZM68.848 12.5348C68.848 13.5921 68.0506 14.1641 66.768 14.1641H65.6933V10.9401H66.872C68.172 10.9574 68.848 11.5294 68.848 12.5348ZM62.8506 19.5028L62.6253 17.9948C62.4173 18.0294 62.192 18.0468 61.9666 18.0468C61.2213 18.0468 60.9266 17.7174 60.9266 17.0934V13.3841H62.8506L62.5386 11.9108H60.9266V9.27608L59.124 9.58809V11.9108H57.8933V13.3841H59.124V17.3881C59.124 19.0868 60.1293 19.6068 61.6373 19.6068C62.0533 19.6241 62.452 19.5894 62.8506 19.5028ZM57.512 17.3014C57.512 15.8801 56.6973 15.3428 54.704 14.8401C53.508 14.5454 53.196 14.3028 53.196 13.8868C53.196 13.4708 53.5773 13.1934 54.3573 13.1934C55.224 13.2281 56.056 13.4534 56.8186 13.8694L57.0786 12.3441C56.2293 11.9801 55.3106 11.8068 54.3746 11.8068C52.572 11.8068 51.5146 12.7254 51.5146 14.0081C51.5146 15.3948 52.2946 15.9148 54.1666 16.3828C55.4666 16.6948 55.8306 16.9028 55.8306 17.4574C55.8306 17.9601 55.328 18.2721 54.444 18.2721C53.4386 18.2374 52.468 17.9428 51.6186 17.3881L51.3586 18.9308C52.2946 19.3988 53.3346 19.6414 54.392 19.6588C56.42 19.6588 57.512 18.7748 57.512 17.3014ZM50.5266 19.5028V11.9108H48.6893V17.0588C48.0826 17.6481 47.4413 18.0294 46.8 18.0294C46.0546 18.0294 45.7426 17.5788 45.7426 16.9028V11.8934H43.9053V17.3708C43.9053 18.7748 44.6853 19.6241 46.176 19.6241C47.216 19.6241 48.0653 19.0868 48.8106 18.4108L49.0706 19.4681L50.5266 19.5028ZM43.0386 13.5921L42.6226 11.8068C41.4613 12.0148 40.768 12.6214 40.2306 13.4881L39.884 11.9108H38.5146V19.5028H40.3V15.1694C40.9066 14.2508 41.9293 13.6614 43.0386 13.5921Z" fill="url(#paint7_linear)"/>
<path d="M39.6586 11.0612L39.2426 9.37988H30.2812V11.0612H33.6613V19.5025H35.5506V11.0612H39.6586Z" fill="url(#paint8_linear)"/>
</g>
</g>
<defs>
<linearGradient id="paint0_linear" x1="10.0361" y1="23.7225" x2="10.0361" y2="6.00877" gradientUnits="userSpaceOnUse">
<stop offset="0.71" stop-color="#116BF2"/>
<stop offset="1" stop-color="#1E50E5"/>
</linearGradient>
<linearGradient id="paint1_linear" x1="15.0973" y1="23.7259" x2="15.0973" y2="6.01361" gradientUnits="userSpaceOnUse">
<stop offset="0.71" stop-color="#116BF2"/>
<stop offset="1" stop-color="#1E50E5"/>
</linearGradient>
<linearGradient id="paint2_linear" x1="18.6318" y1="14.385" x2="26.856" y2="22.6092" gradientUnits="userSpaceOnUse">
<stop offset="0.41" stop-color="#116BF2"/>
<stop offset="1" stop-color="#185DEC"/>
</linearGradient>
<linearGradient id="paint3_linear" x1="19.3418" y1="17.1198" x2="19.3418" y2="5.88425" gradientUnits="userSpaceOnUse">
<stop offset="0.58" stop-color="#116BF2"/>
<stop offset="1" stop-color="#1E50E5"/>
</linearGradient>
<linearGradient id="paint4_linear" x1="8.02814" y1="5.79306" x2="4.6541" y2="9.16709" gradientUnits="userSpaceOnUse">
<stop offset="0.03" stop-color="#59C5FF"/>
<stop offset="0.99" stop-color="#21B1FF"/>
</linearGradient>
<linearGradient id="paint5_linear" x1="16.2692" y1="6.54077" x2="19.6433" y2="9.9148" gradientUnits="userSpaceOnUse">
<stop offset="0.04" stop-color="#59C5FF"/>
<stop offset="0.99" stop-color="#21B1FF"/>
</linearGradient>
<linearGradient id="paint6_linear" x1="23.7873" y1="15.536" x2="21.2568" y2="13.0054" gradientUnits="userSpaceOnUse">
<stop offset="0.04" stop-color="#57C4FF"/>
<stop offset="0.99" stop-color="#21B1FF"/>
</linearGradient>
<linearGradient id="paint7_linear" x1="38.5042" y1="13.9346" x2="103.999" y2="13.9346" gradientUnits="userSpaceOnUse">
<stop offset="0.71" stop-color="#116BF2"/>
<stop offset="1" stop-color="#1E50E5"/>
</linearGradient>
<linearGradient id="paint8_linear" x1="30.28" y1="14.4353" x2="39.6618" y2="14.4353" gradientUnits="userSpaceOnUse">
<stop offset="0.71" stop-color="#116BF2"/>
<stop offset="1" stop-color="#1E50E5"/>
</linearGradient>
<clipPath id="clip0">
<rect width="104" height="25" fill="white" transform="translate(0.5)"/>
</clipPath>
<clipPath id="clip1">
<rect width="104" height="17.68" fill="white" transform="translate(0 6)"/>
</clipPath>
</defs>
</svg>
