<svg width="20" height="20" viewBox="0 0 20 20" fill="none" xmlns="http://www.w3.org/2000/svg">
<path d="M8.18005 18.5008C6.03814 18.4457 3.92124 18.0264 1.92005 17.2608C1.8128 17.2266 1.72098 17.1558 1.66066 17.0607C1.60034 16.9657 1.57534 16.8524 1.59005 16.7408C1.60186 16.6341 1.64837 16.5343 1.72245 16.4566C1.79652 16.3789 1.89405 16.3277 2.00005 16.3108C3.54679 16.122 5.06674 15.7563 6.53005 15.2208C1.11005 11.0208 1.75005 5.72081 2.53005 3.99081C2.56004 3.91639 2.6075 3.85028 2.66842 3.79806C2.72933 3.74585 2.80192 3.70906 2.88005 3.69081C2.95767 3.67529 3.03784 3.67805 3.11421 3.69888C3.19058 3.71971 3.26105 3.75803 3.32005 3.81081L4.20005 4.60081C6.08005 6.32081 7.20005 7.36081 10.0901 7.78081C10.3849 7.82741 10.6852 7.82741 10.9801 7.78081C10.9801 7.66081 10.9001 7.43081 10.8601 7.25081L10.7901 7.02081C10.5368 6.20413 10.5912 5.32298 10.9431 4.54369C11.295 3.7644 11.9199 3.14087 12.7001 2.79081C13.4236 2.47464 14.2227 2.37254 15.0025 2.49661C15.7824 2.62067 16.5103 2.9657 17.1001 3.49081C17.3601 3.70081 17.5401 3.66081 18.4301 3.36081L18.7901 3.24081C18.9122 3.19829 19.046 3.20475 19.1635 3.25882C19.281 3.3129 19.3729 3.41038 19.4201 3.53081C19.5801 3.94081 18.9501 4.85081 18.9401 4.86081C18.6459 5.16821 18.4261 5.53903 18.2979 5.94473C18.1696 6.35042 18.1361 6.78015 18.2001 7.20081C18.2335 7.61346 18.2335 8.02815 18.2001 8.44081C17.8301 11.2808 16.6901 15.1008 13.3601 17.1408C11.7959 18.0728 10.0003 18.5442 8.18005 18.5008ZM4.18005 16.9208C7.69005 17.8508 10.5701 17.6508 12.7501 16.3108C15.7501 14.4808 16.7501 10.9708 17.1301 8.31081C17.1596 7.94807 17.1596 7.58354 17.1301 7.22081C17.0208 6.28228 17.2669 5.33686 17.8201 4.57081C17.5746 4.64088 17.3156 4.64925 17.0662 4.59517C16.8167 4.54109 16.5845 4.42623 16.3901 4.26081C15.9342 3.85804 15.3711 3.59638 14.7693 3.50761C14.1675 3.41885 13.5528 3.50681 13.0001 3.76081C12.4556 4.01806 12.0224 4.46317 11.7798 5.01432C11.5373 5.56546 11.5019 6.18562 11.6801 6.76081L11.7401 6.98081C11.8901 7.53081 12.0401 8.05081 11.6801 8.45081C11.3201 8.85081 10.5901 8.83081 9.87005 8.73081C6.73005 8.30081 5.37005 7.06081 3.49005 5.34081L3.21005 5.09081C2.85005 6.77081 2.53005 11.0908 7.53005 14.7108C7.63653 14.7827 7.71849 14.8853 7.76496 15.0051C7.81143 15.1248 7.82019 15.2559 7.79005 15.3808C7.63005 16.0308 6.00005 16.5508 4.18005 16.9308V16.9208Z" fill="#606162"/>
</svg>
