<svg width="14" height="24" viewBox="0 0 14 24" fill="none" xmlns="http://www.w3.org/2000/svg">
<path d="M6.432 23.74V20.764C4.8 20.636 3.48 20.116 2.472 19.204C1.528 18.372 0.944 17.284 0.72 15.94H2.664C2.872 17.076 3.424 17.924 4.32 18.484C5.104 18.98 6.104 19.228 7.32 19.228C8.824 19.228 9.976 18.892 10.776 18.22C11.432 17.644 11.76 16.916 11.76 16.036C11.76 15.06 11.376 14.308 10.608 13.78C9.824 13.252 8.432 12.748 6.432 12.268C4.496 11.788 3.144 11.14 2.376 10.324C1.72 9.636 1.392 8.74 1.392 7.636C1.392 6.404 1.88 5.396 2.856 4.612C3.752 3.908 4.944 3.5 6.432 3.388V0.579999H8.112V3.388C9.744 3.516 11.048 4.004 12.024 4.852C12.872 5.588 13.4 6.548 13.608 7.732H11.664C11.472 6.756 10.952 6.036 10.104 5.572C9.352 5.14 8.376 4.924 7.176 4.924C5.816 4.924 4.792 5.204 4.104 5.764C3.56 6.228 3.288 6.812 3.288 7.516C3.288 8.364 3.6 9.012 4.224 9.46C4.864 9.924 6.04 10.364 7.752 10.78C10.024 11.34 11.616 12.092 12.528 13.036C13.28 13.804 13.656 14.772 13.656 15.94C13.656 17.316 13.112 18.452 12.024 19.348C11.032 20.196 9.728 20.676 8.112 20.788V23.74H6.432Z" fill="#1B1C1D"/>
</svg>
