<svg width="20" height="20" viewBox="0 0 20 20" fill="none" xmlns="http://www.w3.org/2000/svg">
<g clip-path="url(#clip0)">
<path d="M7.49008 14.0509C7.39851 14.0528 7.3083 14.0285 7.23008 13.9809C7.15823 13.9348 7.09937 13.8711 7.05911 13.7958C7.01885 13.7205 6.99853 13.6362 7.00008 13.5509V7.38086C6.99958 7.29457 7.02142 7.20961 7.06348 7.13426C7.10553 7.05891 7.16637 6.99573 7.24008 6.95086C7.31489 6.90881 7.39927 6.88672 7.48508 6.88672C7.5709 6.88672 7.65527 6.90881 7.73008 6.95086L13.7301 10.0709C13.8124 10.1112 13.8817 10.1738 13.9302 10.2516C13.9787 10.3294 14.0044 10.4192 14.0044 10.5109C14.0044 10.6025 13.9787 10.6923 13.9302 10.7701C13.8817 10.8479 13.8124 10.9105 13.7301 10.9509L7.73008 14.0209C7.65419 14.0521 7.57133 14.0624 7.49008 14.0509ZM8.00008 8.20086V12.7409L12.3701 10.5009L8.00008 8.20086Z" fill="#606162"/>
<path d="M9.99991 17.5C8.20991 17.5 6.38991 17.5 5.58991 17.43C4.67586 17.4132 3.7639 17.3363 2.85991 17.2C2.35575 17.1485 1.87433 16.9639 1.46492 16.6652C1.05552 16.3665 0.732841 15.9644 0.529915 15.5C0.36345 15.0703 0.259068 14.6191 0.219915 14.16C-0.00738882 12.3124 -0.0609566 10.4476 0.0599146 8.59C0.0911611 7.76691 0.188136 6.94764 0.349915 6.14C0.470683 5.51274 0.796564 4.94342 1.27629 4.52163C1.75601 4.09983 2.36235 3.84949 2.99991 3.81C3.83991 3.71 4.69991 3.64 5.53991 3.6C6.60991 3.55 8.28991 3.5 9.99991 3.5C11.7099 3.5 13.3899 3.5 14.5099 3.6C15.3499 3.6 16.2099 3.71 17.0499 3.81C17.6786 3.8601 18.2735 4.11519 18.7432 4.53612C19.2129 4.95704 19.5315 5.52051 19.6499 6.14C19.8117 6.94764 19.9087 7.76691 19.9399 8.59C20.0589 10.4376 20.0053 12.2923 19.7799 14.13C19.7436 14.5993 19.6392 15.0608 19.4699 15.5C19.2712 15.97 18.9503 16.3783 18.5406 16.6825C18.1309 16.9867 17.6473 17.1757 17.1399 17.23C16.2359 17.3663 15.324 17.4432 14.4099 17.46C13.6099 17.46 11.7899 17.52 9.99991 17.53V17.5ZM9.99991 4.5C8.30991 4.5 6.63991 4.5 5.53991 4.6C4.71991 4.6 3.88991 4.71 3.06991 4.8C2.64895 4.82849 2.24945 4.99629 1.9344 5.27694C1.61935 5.55759 1.40667 5.93512 1.32991 6.35C1.18406 7.10907 1.09382 7.87778 1.05991 8.65C0.947483 10.4342 0.99769 12.2249 1.20991 14C1.23496 14.3668 1.31589 14.7276 1.44991 15.07C1.58341 15.3808 1.79746 15.6503 2.06994 15.8507C2.34242 16.0511 2.66347 16.1752 2.99991 16.21C3.8643 16.3392 4.7361 16.4127 5.60991 16.43C6.39991 16.43 8.20991 16.49 9.97991 16.5C11.7499 16.51 13.5599 16.5 14.3499 16.43C15.2371 16.4144 16.1223 16.3409 16.9999 16.21C17.3399 16.1786 17.6651 16.0561 17.9414 15.8555C18.2177 15.6549 18.4348 15.3836 18.5699 15.07C18.7039 14.7276 18.7849 14.3668 18.8099 14C19.0221 12.2249 19.0723 10.4342 18.9599 8.65C18.926 7.87778 18.8358 7.10907 18.6899 6.35C18.6123 5.93197 18.3967 5.55206 18.0776 5.27105C17.7585 4.99004 17.3544 4.82418 16.9299 4.8C16.1099 4.71 15.2799 4.64 14.4599 4.6C13.3599 4.55 11.6899 4.5 9.99991 4.5Z" fill="#606162"/>
</g>
<defs>
<clipPath id="clip0">
<rect width="20" height="20" fill="white" transform="translate(0 0.5)"/>
</clipPath>
</defs>
</svg>
